%FSLAX45Y45*%
G04 Gerber Fmt 4.5, Leading zero omitted, Abs format (unit mm)*
G04 Created by KiCad (PCBNEW (6.0.0)) date 2022-01-31 19:36:31*
%MOMM*%
%LPD*%
G01*
G04 APERTURE LIST*
%TA.AperFunction,Profile*%
%ADD10C,0.100000*%
%TD*%
%ADD11C,0.200000*%
%ADD12C,0.320000*%
G04 APERTURE END LIST*
D10*
X10000000Y-6700000D02*
X18000000Y-6700000D01*
X18000000Y-6700000D02*
X18000000Y-9900000D01*
X18000000Y-9900000D02*
X10000000Y-9900000D01*
X10000000Y-9900000D02*
X10000000Y-6700000D01*
D11*
D12*
X10240000Y-6940000D02*
X10560000Y-7260000D01*
X10560000Y-6940000D02*
X10240000Y-7260000D01*
X10240000Y-9340000D02*
X10560000Y-9660000D01*
X10560000Y-9340000D02*
X10240000Y-9660000D01*
X17440000Y-6940000D02*
X17760000Y-7260000D01*
X17760000Y-6940000D02*
X17440000Y-7260000D01*
X17440000Y-9340000D02*
X17760000Y-9660000D01*
X17760000Y-9340000D02*
X17440000Y-9660000D01*
D11*
X10252619Y-10215476D02*
X10252619Y-10015476D01*
X10300238Y-10015476D01*
X10328810Y-10025000D01*
X10347857Y-10044048D01*
X10357381Y-10063095D01*
X10366905Y-10101190D01*
X10366905Y-10129762D01*
X10357381Y-10167857D01*
X10347857Y-10186905D01*
X10328810Y-10205952D01*
X10300238Y-10215476D01*
X10252619Y-10215476D01*
X10452619Y-10215476D02*
X10452619Y-10082143D01*
X10452619Y-10120238D02*
X10462143Y-10101190D01*
X10471667Y-10091667D01*
X10490714Y-10082143D01*
X10509762Y-10082143D01*
X10576429Y-10215476D02*
X10576429Y-10082143D01*
X10576429Y-10015476D02*
X10566905Y-10025000D01*
X10576429Y-10034524D01*
X10585952Y-10025000D01*
X10576429Y-10015476D01*
X10576429Y-10034524D01*
X10700238Y-10215476D02*
X10681190Y-10205952D01*
X10671667Y-10186905D01*
X10671667Y-10015476D01*
X10805000Y-10215476D02*
X10785952Y-10205952D01*
X10776429Y-10186905D01*
X10776429Y-10015476D01*
X11033571Y-10215476D02*
X11033571Y-10015476D01*
X11100238Y-10158333D01*
X11166905Y-10015476D01*
X11166905Y-10215476D01*
X11347857Y-10215476D02*
X11347857Y-10110714D01*
X11338333Y-10091667D01*
X11319286Y-10082143D01*
X11281190Y-10082143D01*
X11262143Y-10091667D01*
X11347857Y-10205952D02*
X11328809Y-10215476D01*
X11281190Y-10215476D01*
X11262143Y-10205952D01*
X11252619Y-10186905D01*
X11252619Y-10167857D01*
X11262143Y-10148810D01*
X11281190Y-10139286D01*
X11328809Y-10139286D01*
X11347857Y-10129762D01*
X11443095Y-10082143D02*
X11443095Y-10282143D01*
X11443095Y-10091667D02*
X11462143Y-10082143D01*
X11500238Y-10082143D01*
X11519286Y-10091667D01*
X11528809Y-10101190D01*
X11538333Y-10120238D01*
X11538333Y-10177381D01*
X11528809Y-10196429D01*
X11519286Y-10205952D01*
X11500238Y-10215476D01*
X11462143Y-10215476D01*
X11443095Y-10205952D01*
X11624048Y-10196429D02*
X11633571Y-10205952D01*
X11624048Y-10215476D01*
X11614524Y-10205952D01*
X11624048Y-10196429D01*
X11624048Y-10215476D01*
X11624048Y-10091667D02*
X11633571Y-10101190D01*
X11624048Y-10110714D01*
X11614524Y-10101190D01*
X11624048Y-10091667D01*
X11624048Y-10110714D01*
X9795000Y-10445000D02*
X9995000Y-10645000D01*
X9995000Y-10445000D02*
X9795000Y-10645000D01*
X10233571Y-10435476D02*
X10357381Y-10435476D01*
X10290714Y-10511667D01*
X10319286Y-10511667D01*
X10338333Y-10521190D01*
X10347857Y-10530714D01*
X10357381Y-10549762D01*
X10357381Y-10597381D01*
X10347857Y-10616429D01*
X10338333Y-10625952D01*
X10319286Y-10635476D01*
X10262143Y-10635476D01*
X10243095Y-10625952D01*
X10233571Y-10616429D01*
X10443095Y-10616429D02*
X10452619Y-10625952D01*
X10443095Y-10635476D01*
X10433571Y-10625952D01*
X10443095Y-10616429D01*
X10443095Y-10635476D01*
X10528810Y-10454524D02*
X10538333Y-10445000D01*
X10557381Y-10435476D01*
X10605000Y-10435476D01*
X10624048Y-10445000D01*
X10633571Y-10454524D01*
X10643095Y-10473571D01*
X10643095Y-10492619D01*
X10633571Y-10521190D01*
X10519286Y-10635476D01*
X10643095Y-10635476D01*
X10766905Y-10435476D02*
X10785952Y-10435476D01*
X10805000Y-10445000D01*
X10814524Y-10454524D01*
X10824048Y-10473571D01*
X10833571Y-10511667D01*
X10833571Y-10559286D01*
X10824048Y-10597381D01*
X10814524Y-10616429D01*
X10805000Y-10625952D01*
X10785952Y-10635476D01*
X10766905Y-10635476D01*
X10747857Y-10625952D01*
X10738333Y-10616429D01*
X10728810Y-10597381D01*
X10719286Y-10559286D01*
X10719286Y-10511667D01*
X10728810Y-10473571D01*
X10738333Y-10454524D01*
X10747857Y-10445000D01*
X10766905Y-10435476D01*
X10957381Y-10435476D02*
X10976429Y-10435476D01*
X10995476Y-10445000D01*
X11005000Y-10454524D01*
X11014524Y-10473571D01*
X11024048Y-10511667D01*
X11024048Y-10559286D01*
X11014524Y-10597381D01*
X11005000Y-10616429D01*
X10995476Y-10625952D01*
X10976429Y-10635476D01*
X10957381Y-10635476D01*
X10938333Y-10625952D01*
X10928810Y-10616429D01*
X10919286Y-10597381D01*
X10909762Y-10559286D01*
X10909762Y-10511667D01*
X10919286Y-10473571D01*
X10928810Y-10454524D01*
X10938333Y-10445000D01*
X10957381Y-10435476D01*
X11109762Y-10635476D02*
X11109762Y-10502143D01*
X11109762Y-10521190D02*
X11119286Y-10511667D01*
X11138333Y-10502143D01*
X11166905Y-10502143D01*
X11185952Y-10511667D01*
X11195476Y-10530714D01*
X11195476Y-10635476D01*
X11195476Y-10530714D02*
X11205000Y-10511667D01*
X11224048Y-10502143D01*
X11252619Y-10502143D01*
X11271667Y-10511667D01*
X11281190Y-10530714D01*
X11281190Y-10635476D01*
X11376428Y-10635476D02*
X11376428Y-10502143D01*
X11376428Y-10521190D02*
X11385952Y-10511667D01*
X11405000Y-10502143D01*
X11433571Y-10502143D01*
X11452619Y-10511667D01*
X11462143Y-10530714D01*
X11462143Y-10635476D01*
X11462143Y-10530714D02*
X11471667Y-10511667D01*
X11490714Y-10502143D01*
X11519286Y-10502143D01*
X11538333Y-10511667D01*
X11547857Y-10530714D01*
X11547857Y-10635476D01*
X11938333Y-10425952D02*
X11766905Y-10683095D01*
X12195476Y-10435476D02*
X12214524Y-10435476D01*
X12233571Y-10445000D01*
X12243095Y-10454524D01*
X12252619Y-10473571D01*
X12262143Y-10511667D01*
X12262143Y-10559286D01*
X12252619Y-10597381D01*
X12243095Y-10616429D01*
X12233571Y-10625952D01*
X12214524Y-10635476D01*
X12195476Y-10635476D01*
X12176428Y-10625952D01*
X12166905Y-10616429D01*
X12157381Y-10597381D01*
X12147857Y-10559286D01*
X12147857Y-10511667D01*
X12157381Y-10473571D01*
X12166905Y-10454524D01*
X12176428Y-10445000D01*
X12195476Y-10435476D01*
X12347857Y-10616429D02*
X12357381Y-10625952D01*
X12347857Y-10635476D01*
X12338333Y-10625952D01*
X12347857Y-10616429D01*
X12347857Y-10635476D01*
X12547857Y-10635476D02*
X12433571Y-10635476D01*
X12490714Y-10635476D02*
X12490714Y-10435476D01*
X12471667Y-10464048D01*
X12452619Y-10483095D01*
X12433571Y-10492619D01*
X12624048Y-10454524D02*
X12633571Y-10445000D01*
X12652619Y-10435476D01*
X12700238Y-10435476D01*
X12719286Y-10445000D01*
X12728809Y-10454524D01*
X12738333Y-10473571D01*
X12738333Y-10492619D01*
X12728809Y-10521190D01*
X12614524Y-10635476D01*
X12738333Y-10635476D01*
X12909762Y-10435476D02*
X12871667Y-10435476D01*
X12852619Y-10445000D01*
X12843095Y-10454524D01*
X12824048Y-10483095D01*
X12814524Y-10521190D01*
X12814524Y-10597381D01*
X12824048Y-10616429D01*
X12833571Y-10625952D01*
X12852619Y-10635476D01*
X12890714Y-10635476D01*
X12909762Y-10625952D01*
X12919286Y-10616429D01*
X12928809Y-10597381D01*
X12928809Y-10549762D01*
X12919286Y-10530714D01*
X12909762Y-10521190D01*
X12890714Y-10511667D01*
X12852619Y-10511667D01*
X12833571Y-10521190D01*
X12824048Y-10530714D01*
X12814524Y-10549762D01*
X13052619Y-10435476D02*
X13071667Y-10435476D01*
X13090714Y-10445000D01*
X13100238Y-10454524D01*
X13109762Y-10473571D01*
X13119286Y-10511667D01*
X13119286Y-10559286D01*
X13109762Y-10597381D01*
X13100238Y-10616429D01*
X13090714Y-10625952D01*
X13071667Y-10635476D01*
X13052619Y-10635476D01*
X13033571Y-10625952D01*
X13024048Y-10616429D01*
X13014524Y-10597381D01*
X13005000Y-10559286D01*
X13005000Y-10511667D01*
X13014524Y-10473571D01*
X13024048Y-10454524D01*
X13033571Y-10445000D01*
X13052619Y-10435476D01*
X13195476Y-10435476D02*
X13195476Y-10473571D01*
X13271667Y-10435476D02*
X13271667Y-10473571D01*
X13566905Y-10711667D02*
X13557381Y-10702143D01*
X13538333Y-10673571D01*
X13528809Y-10654524D01*
X13519286Y-10625952D01*
X13509762Y-10578333D01*
X13509762Y-10540238D01*
X13519286Y-10492619D01*
X13528809Y-10464048D01*
X13538333Y-10445000D01*
X13557381Y-10416429D01*
X13566905Y-10406905D01*
X13728809Y-10502143D02*
X13728809Y-10635476D01*
X13681190Y-10425952D02*
X13633571Y-10568810D01*
X13757381Y-10568810D01*
X13985952Y-10635476D02*
X13985952Y-10435476D01*
X14071667Y-10635476D02*
X14071667Y-10530714D01*
X14062143Y-10511667D01*
X14043095Y-10502143D01*
X14014524Y-10502143D01*
X13995476Y-10511667D01*
X13985952Y-10521190D01*
X14195476Y-10635476D02*
X14176428Y-10625952D01*
X14166905Y-10616429D01*
X14157381Y-10597381D01*
X14157381Y-10540238D01*
X14166905Y-10521190D01*
X14176428Y-10511667D01*
X14195476Y-10502143D01*
X14224048Y-10502143D01*
X14243095Y-10511667D01*
X14252619Y-10521190D01*
X14262143Y-10540238D01*
X14262143Y-10597381D01*
X14252619Y-10616429D01*
X14243095Y-10625952D01*
X14224048Y-10635476D01*
X14195476Y-10635476D01*
X14376428Y-10635476D02*
X14357381Y-10625952D01*
X14347857Y-10606905D01*
X14347857Y-10435476D01*
X14528809Y-10625952D02*
X14509762Y-10635476D01*
X14471667Y-10635476D01*
X14452619Y-10625952D01*
X14443095Y-10606905D01*
X14443095Y-10530714D01*
X14452619Y-10511667D01*
X14471667Y-10502143D01*
X14509762Y-10502143D01*
X14528809Y-10511667D01*
X14538333Y-10530714D01*
X14538333Y-10549762D01*
X14443095Y-10568810D01*
X14614524Y-10625952D02*
X14633571Y-10635476D01*
X14671667Y-10635476D01*
X14690714Y-10625952D01*
X14700238Y-10606905D01*
X14700238Y-10597381D01*
X14690714Y-10578333D01*
X14671667Y-10568810D01*
X14643095Y-10568810D01*
X14624048Y-10559286D01*
X14614524Y-10540238D01*
X14614524Y-10530714D01*
X14624048Y-10511667D01*
X14643095Y-10502143D01*
X14671667Y-10502143D01*
X14690714Y-10511667D01*
X14766905Y-10711667D02*
X14776428Y-10702143D01*
X14795476Y-10673571D01*
X14805000Y-10654524D01*
X14814524Y-10625952D01*
X14824048Y-10578333D01*
X14824048Y-10540238D01*
X14814524Y-10492619D01*
X14805000Y-10464048D01*
X14795476Y-10445000D01*
X14776428Y-10416429D01*
X14766905Y-10406905D01*
X15128809Y-10711667D02*
X15119286Y-10702143D01*
X15100238Y-10673571D01*
X15090714Y-10654524D01*
X15081190Y-10625952D01*
X15071667Y-10578333D01*
X15071667Y-10540238D01*
X15081190Y-10492619D01*
X15090714Y-10464048D01*
X15100238Y-10445000D01*
X15119286Y-10416429D01*
X15128809Y-10406905D01*
X15205000Y-10502143D02*
X15205000Y-10635476D01*
X15205000Y-10521190D02*
X15214524Y-10511667D01*
X15233571Y-10502143D01*
X15262143Y-10502143D01*
X15281190Y-10511667D01*
X15290714Y-10530714D01*
X15290714Y-10635476D01*
X15414524Y-10635476D02*
X15395476Y-10625952D01*
X15385952Y-10616429D01*
X15376428Y-10597381D01*
X15376428Y-10540238D01*
X15385952Y-10521190D01*
X15395476Y-10511667D01*
X15414524Y-10502143D01*
X15443095Y-10502143D01*
X15462143Y-10511667D01*
X15471667Y-10521190D01*
X15481190Y-10540238D01*
X15481190Y-10597381D01*
X15471667Y-10616429D01*
X15462143Y-10625952D01*
X15443095Y-10635476D01*
X15414524Y-10635476D01*
X15538333Y-10502143D02*
X15614524Y-10502143D01*
X15566905Y-10435476D02*
X15566905Y-10606905D01*
X15576428Y-10625952D01*
X15595476Y-10635476D01*
X15614524Y-10635476D01*
X15833571Y-10502143D02*
X15833571Y-10702143D01*
X15833571Y-10511667D02*
X15852619Y-10502143D01*
X15890714Y-10502143D01*
X15909762Y-10511667D01*
X15919286Y-10521190D01*
X15928809Y-10540238D01*
X15928809Y-10597381D01*
X15919286Y-10616429D01*
X15909762Y-10625952D01*
X15890714Y-10635476D01*
X15852619Y-10635476D01*
X15833571Y-10625952D01*
X16043095Y-10635476D02*
X16024048Y-10625952D01*
X16014524Y-10606905D01*
X16014524Y-10435476D01*
X16205000Y-10635476D02*
X16205000Y-10530714D01*
X16195476Y-10511667D01*
X16176428Y-10502143D01*
X16138333Y-10502143D01*
X16119286Y-10511667D01*
X16205000Y-10625952D02*
X16185952Y-10635476D01*
X16138333Y-10635476D01*
X16119286Y-10625952D01*
X16109762Y-10606905D01*
X16109762Y-10587857D01*
X16119286Y-10568810D01*
X16138333Y-10559286D01*
X16185952Y-10559286D01*
X16205000Y-10549762D01*
X16271667Y-10502143D02*
X16347857Y-10502143D01*
X16300238Y-10435476D02*
X16300238Y-10606905D01*
X16309762Y-10625952D01*
X16328809Y-10635476D01*
X16347857Y-10635476D01*
X16490714Y-10625952D02*
X16471667Y-10635476D01*
X16433571Y-10635476D01*
X16414524Y-10625952D01*
X16405000Y-10606905D01*
X16405000Y-10530714D01*
X16414524Y-10511667D01*
X16433571Y-10502143D01*
X16471667Y-10502143D01*
X16490714Y-10511667D01*
X16500238Y-10530714D01*
X16500238Y-10549762D01*
X16405000Y-10568810D01*
X16671667Y-10635476D02*
X16671667Y-10435476D01*
X16671667Y-10625952D02*
X16652619Y-10635476D01*
X16614524Y-10635476D01*
X16595476Y-10625952D01*
X16585952Y-10616429D01*
X16576428Y-10597381D01*
X16576428Y-10540238D01*
X16585952Y-10521190D01*
X16595476Y-10511667D01*
X16614524Y-10502143D01*
X16652619Y-10502143D01*
X16671667Y-10511667D01*
X16747857Y-10711667D02*
X16757381Y-10702143D01*
X16776428Y-10673571D01*
X16785952Y-10654524D01*
X16795476Y-10625952D01*
X16805000Y-10578333D01*
X16805000Y-10540238D01*
X16795476Y-10492619D01*
X16785952Y-10464048D01*
X16776428Y-10445000D01*
X16757381Y-10416429D01*
X16747857Y-10406905D01*
M02*
