M48
; DRILL file {KiCad (6.0.0)} date Mon Jan 31 19:36:31 2022
; FORMAT={-:-/ absolute / metric / decimal}
; #@! TF.CreationDate,2022-01-31T19:36:31+00:00
; #@! TF.GenerationSoftware,Kicad,Pcbnew,(6.0.0)
; #@! TF.FileFunction,Plated,1,2,PTH
FMAT,2
METRIC
; #@! TA.AperFunction,Plated,PTH,ComponentDrill
T1C1.016
; #@! TA.AperFunction,Plated,PTH,ComponentDrill
T2C1.520
%
G90
G05
T1
X113.06Y-78.0
X113.06Y-80.54
X113.06Y-83.08
X113.06Y-85.62
X113.06Y-88.16
X115.6Y-78.0
X115.6Y-80.54
X115.6Y-83.08
X115.6Y-85.62
X115.6Y-88.16
X123.53Y-78.0
X123.53Y-80.54
X123.53Y-83.08
X123.53Y-85.62
X123.53Y-88.16
X126.07Y-78.0
X126.07Y-80.54
X126.07Y-83.08
X126.07Y-85.62
X126.07Y-88.16
X134.0Y-78.0
X134.0Y-80.54
X134.0Y-83.08
X134.0Y-85.62
X134.0Y-88.16
X136.54Y-78.0
X136.54Y-80.54
X136.54Y-83.08
X136.54Y-85.62
X136.54Y-88.16
X144.47Y-78.0
X144.47Y-80.54
X144.47Y-83.08
X144.47Y-85.62
X144.47Y-88.16
X147.01Y-78.0
X147.01Y-80.54
X147.01Y-83.08
X147.01Y-85.62
X147.01Y-88.16
X154.94Y-78.0
X154.94Y-80.54
X154.94Y-83.08
X154.94Y-85.62
X154.94Y-88.16
X157.48Y-78.0
X157.48Y-80.54
X157.48Y-83.08
X157.48Y-85.62
X157.48Y-88.16
X165.41Y-78.0
X165.41Y-80.54
X165.41Y-83.08
X165.41Y-85.62
X165.41Y-88.16
X167.95Y-78.0
X167.95Y-80.54
X167.95Y-83.08
X167.95Y-85.62
X167.95Y-88.16
T2
X105.0Y-77.92
X105.0Y-83.0
X105.0Y-88.08
X176.0Y-77.92
X176.0Y-83.0
X176.0Y-88.08
T0
M30
