%TF.GenerationSoftware,KiCad,Pcbnew,(6.0.0)*%
%TF.CreationDate,2022-01-31T19:36:33+00:00*%
%TF.ProjectId,BusyBusBoard,42757379-4275-4734-926f-6172642e6b69,rev?*%
%TF.SameCoordinates,Original*%
%TF.FileFunction,Copper,L2,Bot*%
%TF.FilePolarity,Positive*%
%FSLAX46Y46*%
G04 Gerber Fmt 4.6, Leading zero omitted, Abs format (unit mm)*
G04 Created by KiCad (PCBNEW (6.0.0)) date 2022-01-31 19:36:33*
%MOMM*%
%LPD*%
G01*
G04 APERTURE LIST*
%TA.AperFunction,ComponentPad*%
%ADD10C,3.000000*%
%TD*%
%TA.AperFunction,ComponentPad*%
%ADD11R,3.000000X3.000000*%
%TD*%
%TA.AperFunction,ComponentPad*%
%ADD12O,1.727200X1.727200*%
%TD*%
%TA.AperFunction,ComponentPad*%
%ADD13R,1.727200X1.727200*%
%TD*%
G04 APERTURE END LIST*
D10*
%TO.P,J1,3,Pin_3*%
%TO.N,+12V*%
X105000000Y-88080000D03*
%TO.P,J1,2,Pin_2*%
%TO.N,GND*%
X105000000Y-83000000D03*
D11*
%TO.P,J1,1,Pin_1*%
%TO.N,-12V*%
X105000000Y-77920000D03*
%TD*%
D12*
%TO.P,J4,10,Pin_10*%
%TO.N,+12V*%
X136540000Y-88160000D03*
%TO.P,J4,9,Pin_9*%
X134000000Y-88160000D03*
%TO.P,J4,8,Pin_8*%
%TO.N,GND*%
X136540000Y-85620000D03*
%TO.P,J4,7,Pin_7*%
X134000000Y-85620000D03*
%TO.P,J4,6,Pin_6*%
X136540000Y-83080000D03*
%TO.P,J4,5,Pin_5*%
X134000000Y-83080000D03*
%TO.P,J4,4,Pin_4*%
X136540000Y-80540000D03*
%TO.P,J4,3,Pin_3*%
X134000000Y-80540000D03*
%TO.P,J4,2,Pin_2*%
%TO.N,-12V*%
X136540000Y-78000000D03*
D13*
%TO.P,J4,1,Pin_1*%
X134000000Y-78000000D03*
%TD*%
D11*
%TO.P,J7,1,Pin_1*%
%TO.N,-12V*%
X176000000Y-77920000D03*
D10*
%TO.P,J7,2,Pin_2*%
%TO.N,GND*%
X176000000Y-83000000D03*
%TO.P,J7,3,Pin_3*%
%TO.N,+12V*%
X176000000Y-88080000D03*
%TD*%
D12*
%TO.P,J3,10,Pin_10*%
%TO.N,+12V*%
X126070000Y-88160000D03*
%TO.P,J3,9,Pin_9*%
X123530000Y-88160000D03*
%TO.P,J3,8,Pin_8*%
%TO.N,GND*%
X126070000Y-85620000D03*
%TO.P,J3,7,Pin_7*%
X123530000Y-85620000D03*
%TO.P,J3,6,Pin_6*%
X126070000Y-83080000D03*
%TO.P,J3,5,Pin_5*%
X123530000Y-83080000D03*
%TO.P,J3,4,Pin_4*%
X126070000Y-80540000D03*
%TO.P,J3,3,Pin_3*%
X123530000Y-80540000D03*
%TO.P,J3,2,Pin_2*%
%TO.N,-12V*%
X126070000Y-78000000D03*
D13*
%TO.P,J3,1,Pin_1*%
X123530000Y-78000000D03*
%TD*%
%TO.P,J5,1,Pin_1*%
%TO.N,-12V*%
X144470000Y-78000000D03*
D12*
%TO.P,J5,2,Pin_2*%
X147010000Y-78000000D03*
%TO.P,J5,3,Pin_3*%
%TO.N,GND*%
X144470000Y-80540000D03*
%TO.P,J5,4,Pin_4*%
X147010000Y-80540000D03*
%TO.P,J5,5,Pin_5*%
X144470000Y-83080000D03*
%TO.P,J5,6,Pin_6*%
X147010000Y-83080000D03*
%TO.P,J5,7,Pin_7*%
X144470000Y-85620000D03*
%TO.P,J5,8,Pin_8*%
X147010000Y-85620000D03*
%TO.P,J5,9,Pin_9*%
%TO.N,+12V*%
X144470000Y-88160000D03*
%TO.P,J5,10,Pin_10*%
X147010000Y-88160000D03*
%TD*%
%TO.P,J8,10,Pin_10*%
%TO.N,+12V*%
X167950000Y-88160000D03*
%TO.P,J8,9,Pin_9*%
X165410000Y-88160000D03*
%TO.P,J8,8,Pin_8*%
%TO.N,GND*%
X167950000Y-85620000D03*
%TO.P,J8,7,Pin_7*%
X165410000Y-85620000D03*
%TO.P,J8,6,Pin_6*%
X167950000Y-83080000D03*
%TO.P,J8,5,Pin_5*%
X165410000Y-83080000D03*
%TO.P,J8,4,Pin_4*%
X167950000Y-80540000D03*
%TO.P,J8,3,Pin_3*%
X165410000Y-80540000D03*
%TO.P,J8,2,Pin_2*%
%TO.N,-12V*%
X167950000Y-78000000D03*
D13*
%TO.P,J8,1,Pin_1*%
X165410000Y-78000000D03*
%TD*%
D12*
%TO.P,J6,10,Pin_10*%
%TO.N,+12V*%
X157480000Y-88160000D03*
%TO.P,J6,9,Pin_9*%
X154940000Y-88160000D03*
%TO.P,J6,8,Pin_8*%
%TO.N,GND*%
X157480000Y-85620000D03*
%TO.P,J6,7,Pin_7*%
X154940000Y-85620000D03*
%TO.P,J6,6,Pin_6*%
X157480000Y-83080000D03*
%TO.P,J6,5,Pin_5*%
X154940000Y-83080000D03*
%TO.P,J6,4,Pin_4*%
X157480000Y-80540000D03*
%TO.P,J6,3,Pin_3*%
X154940000Y-80540000D03*
%TO.P,J6,2,Pin_2*%
%TO.N,-12V*%
X157480000Y-78000000D03*
D13*
%TO.P,J6,1,Pin_1*%
X154940000Y-78000000D03*
%TD*%
%TO.P,J2,1,Pin_1*%
%TO.N,-12V*%
X113060000Y-78000000D03*
D12*
%TO.P,J2,2,Pin_2*%
X115600000Y-78000000D03*
%TO.P,J2,3,Pin_3*%
%TO.N,GND*%
X113060000Y-80540000D03*
%TO.P,J2,4,Pin_4*%
X115600000Y-80540000D03*
%TO.P,J2,5,Pin_5*%
X113060000Y-83080000D03*
%TO.P,J2,6,Pin_6*%
X115600000Y-83080000D03*
%TO.P,J2,7,Pin_7*%
X113060000Y-85620000D03*
%TO.P,J2,8,Pin_8*%
X115600000Y-85620000D03*
%TO.P,J2,9,Pin_9*%
%TO.N,+12V*%
X113060000Y-88160000D03*
%TO.P,J2,10,Pin_10*%
X115600000Y-88160000D03*
%TD*%
%TA.AperFunction,Conductor*%
%TO.N,GND*%
G36*
X179434121Y-67528002D02*
G01*
X179480614Y-67581658D01*
X179492000Y-67634000D01*
X179492000Y-98366000D01*
X179471998Y-98434121D01*
X179418342Y-98480614D01*
X179366000Y-98492000D01*
X100634000Y-98492000D01*
X100565879Y-98471998D01*
X100519386Y-98418342D01*
X100508000Y-98366000D01*
X100508000Y-95132703D01*
X101890743Y-95132703D01*
X101928268Y-95417734D01*
X102004129Y-95695036D01*
X102116923Y-95959476D01*
X102264561Y-96206161D01*
X102444313Y-96430528D01*
X102652851Y-96628423D01*
X102886317Y-96796186D01*
X102890112Y-96798195D01*
X102890113Y-96798196D01*
X102911869Y-96809715D01*
X103140392Y-96930712D01*
X103410373Y-97029511D01*
X103691264Y-97090755D01*
X103719841Y-97093004D01*
X103914282Y-97108307D01*
X103914291Y-97108307D01*
X103916739Y-97108500D01*
X104072271Y-97108500D01*
X104074407Y-97108354D01*
X104074418Y-97108354D01*
X104282548Y-97094165D01*
X104282554Y-97094164D01*
X104286825Y-97093873D01*
X104291020Y-97093004D01*
X104291022Y-97093004D01*
X104427583Y-97064724D01*
X104568342Y-97035574D01*
X104839343Y-96939607D01*
X105094812Y-96807750D01*
X105098313Y-96805289D01*
X105098317Y-96805287D01*
X105212418Y-96725095D01*
X105330023Y-96642441D01*
X105540622Y-96446740D01*
X105722713Y-96224268D01*
X105872927Y-95979142D01*
X105988483Y-95715898D01*
X106067244Y-95439406D01*
X106107751Y-95154784D01*
X106107845Y-95136951D01*
X106107867Y-95132703D01*
X173890743Y-95132703D01*
X173928268Y-95417734D01*
X174004129Y-95695036D01*
X174116923Y-95959476D01*
X174264561Y-96206161D01*
X174444313Y-96430528D01*
X174652851Y-96628423D01*
X174886317Y-96796186D01*
X174890112Y-96798195D01*
X174890113Y-96798196D01*
X174911869Y-96809715D01*
X175140392Y-96930712D01*
X175410373Y-97029511D01*
X175691264Y-97090755D01*
X175719841Y-97093004D01*
X175914282Y-97108307D01*
X175914291Y-97108307D01*
X175916739Y-97108500D01*
X176072271Y-97108500D01*
X176074407Y-97108354D01*
X176074418Y-97108354D01*
X176282548Y-97094165D01*
X176282554Y-97094164D01*
X176286825Y-97093873D01*
X176291020Y-97093004D01*
X176291022Y-97093004D01*
X176427583Y-97064724D01*
X176568342Y-97035574D01*
X176839343Y-96939607D01*
X177094812Y-96807750D01*
X177098313Y-96805289D01*
X177098317Y-96805287D01*
X177212418Y-96725095D01*
X177330023Y-96642441D01*
X177540622Y-96446740D01*
X177722713Y-96224268D01*
X177872927Y-95979142D01*
X177988483Y-95715898D01*
X178067244Y-95439406D01*
X178107751Y-95154784D01*
X178107845Y-95136951D01*
X178109235Y-94871583D01*
X178109235Y-94871576D01*
X178109257Y-94867297D01*
X178071732Y-94582266D01*
X177995871Y-94304964D01*
X177883077Y-94040524D01*
X177735439Y-93793839D01*
X177555687Y-93569472D01*
X177347149Y-93371577D01*
X177113683Y-93203814D01*
X177091843Y-93192250D01*
X177068654Y-93179972D01*
X176859608Y-93069288D01*
X176589627Y-92970489D01*
X176308736Y-92909245D01*
X176277685Y-92906801D01*
X176085718Y-92891693D01*
X176085709Y-92891693D01*
X176083261Y-92891500D01*
X175927729Y-92891500D01*
X175925593Y-92891646D01*
X175925582Y-92891646D01*
X175717452Y-92905835D01*
X175717446Y-92905836D01*
X175713175Y-92906127D01*
X175708980Y-92906996D01*
X175708978Y-92906996D01*
X175572417Y-92935276D01*
X175431658Y-92964426D01*
X175160657Y-93060393D01*
X174905188Y-93192250D01*
X174901687Y-93194711D01*
X174901683Y-93194713D01*
X174891594Y-93201804D01*
X174669977Y-93357559D01*
X174459378Y-93553260D01*
X174277287Y-93775732D01*
X174127073Y-94020858D01*
X174011517Y-94284102D01*
X173932756Y-94560594D01*
X173892249Y-94845216D01*
X173892227Y-94849505D01*
X173892226Y-94849512D01*
X173890765Y-95128417D01*
X173890743Y-95132703D01*
X106107867Y-95132703D01*
X106109235Y-94871583D01*
X106109235Y-94871576D01*
X106109257Y-94867297D01*
X106071732Y-94582266D01*
X105995871Y-94304964D01*
X105883077Y-94040524D01*
X105735439Y-93793839D01*
X105555687Y-93569472D01*
X105347149Y-93371577D01*
X105113683Y-93203814D01*
X105091843Y-93192250D01*
X105068654Y-93179972D01*
X104859608Y-93069288D01*
X104589627Y-92970489D01*
X104308736Y-92909245D01*
X104277685Y-92906801D01*
X104085718Y-92891693D01*
X104085709Y-92891693D01*
X104083261Y-92891500D01*
X103927729Y-92891500D01*
X103925593Y-92891646D01*
X103925582Y-92891646D01*
X103717452Y-92905835D01*
X103717446Y-92905836D01*
X103713175Y-92906127D01*
X103708980Y-92906996D01*
X103708978Y-92906996D01*
X103572417Y-92935276D01*
X103431658Y-92964426D01*
X103160657Y-93060393D01*
X102905188Y-93192250D01*
X102901687Y-93194711D01*
X102901683Y-93194713D01*
X102891594Y-93201804D01*
X102669977Y-93357559D01*
X102459378Y-93553260D01*
X102277287Y-93775732D01*
X102127073Y-94020858D01*
X102011517Y-94284102D01*
X101932756Y-94560594D01*
X101892249Y-94845216D01*
X101892227Y-94849505D01*
X101892226Y-94849512D01*
X101890765Y-95128417D01*
X101890743Y-95132703D01*
X100508000Y-95132703D01*
X100508000Y-88058918D01*
X102986917Y-88058918D01*
X103002682Y-88332320D01*
X103003507Y-88336525D01*
X103003508Y-88336533D01*
X103033917Y-88491526D01*
X103055405Y-88601053D01*
X103056792Y-88605103D01*
X103056793Y-88605108D01*
X103135165Y-88834013D01*
X103144112Y-88860144D01*
X103267160Y-89104799D01*
X103269586Y-89108328D01*
X103269589Y-89108334D01*
X103392941Y-89287810D01*
X103422274Y-89330490D01*
X103425161Y-89333663D01*
X103425162Y-89333664D01*
X103524982Y-89443365D01*
X103606582Y-89533043D01*
X103816675Y-89708707D01*
X103820316Y-89710991D01*
X104045024Y-89851951D01*
X104045028Y-89851953D01*
X104048664Y-89854234D01*
X104116544Y-89884883D01*
X104294345Y-89965164D01*
X104294349Y-89965166D01*
X104298257Y-89966930D01*
X104302377Y-89968150D01*
X104302376Y-89968150D01*
X104556723Y-90043491D01*
X104556727Y-90043492D01*
X104560836Y-90044709D01*
X104565070Y-90045357D01*
X104565075Y-90045358D01*
X104827298Y-90085483D01*
X104827300Y-90085483D01*
X104831540Y-90086132D01*
X104970912Y-90088322D01*
X105101071Y-90090367D01*
X105101077Y-90090367D01*
X105105362Y-90090434D01*
X105377235Y-90057534D01*
X105642127Y-89988041D01*
X105646087Y-89986401D01*
X105646092Y-89986399D01*
X105768632Y-89935641D01*
X105895136Y-89883241D01*
X106131582Y-89745073D01*
X106347089Y-89576094D01*
X106388809Y-89533043D01*
X106516142Y-89401645D01*
X106537669Y-89379431D01*
X106540202Y-89375983D01*
X106540206Y-89375978D01*
X106697257Y-89162178D01*
X106699795Y-89158723D01*
X106727154Y-89108334D01*
X106828418Y-88921830D01*
X106828419Y-88921828D01*
X106830468Y-88918054D01*
X106918976Y-88683825D01*
X106925751Y-88665895D01*
X106925752Y-88665891D01*
X106927269Y-88661877D01*
X106988407Y-88394933D01*
X106991823Y-88356666D01*
X107012376Y-88126362D01*
X111683609Y-88126362D01*
X111683906Y-88131514D01*
X111683906Y-88131518D01*
X111689618Y-88230578D01*
X111696597Y-88351614D01*
X111697734Y-88356660D01*
X111697735Y-88356666D01*
X111718984Y-88450952D01*
X111746200Y-88571720D01*
X111748142Y-88576502D01*
X111748143Y-88576506D01*
X111784822Y-88666835D01*
X111831086Y-88780769D01*
X111948975Y-88973147D01*
X112096702Y-89143687D01*
X112270299Y-89287810D01*
X112274751Y-89290412D01*
X112274756Y-89290415D01*
X112432356Y-89382509D01*
X112465103Y-89401645D01*
X112675884Y-89482134D01*
X112680952Y-89483165D01*
X112680955Y-89483166D01*
X112789404Y-89505230D01*
X112896981Y-89527117D01*
X112902156Y-89527307D01*
X112902158Y-89527307D01*
X113117292Y-89535196D01*
X113117296Y-89535196D01*
X113122456Y-89535385D01*
X113127576Y-89534729D01*
X113127578Y-89534729D01*
X113196985Y-89525838D01*
X113346253Y-89506716D01*
X113351202Y-89505231D01*
X113351208Y-89505230D01*
X113557413Y-89443365D01*
X113557412Y-89443365D01*
X113562363Y-89441880D01*
X113657419Y-89395312D01*
X113760331Y-89344897D01*
X113760336Y-89344894D01*
X113764982Y-89342618D01*
X113769192Y-89339615D01*
X113769197Y-89339612D01*
X113944455Y-89214601D01*
X113944459Y-89214597D01*
X113948667Y-89211596D01*
X114108487Y-89052333D01*
X114202263Y-88921830D01*
X114229370Y-88884107D01*
X114285364Y-88840459D01*
X114356068Y-88834013D01*
X114419032Y-88866816D01*
X114439125Y-88891799D01*
X114486275Y-88968743D01*
X114486279Y-88968748D01*
X114488975Y-88973147D01*
X114636702Y-89143687D01*
X114810299Y-89287810D01*
X114814751Y-89290412D01*
X114814756Y-89290415D01*
X114972356Y-89382509D01*
X115005103Y-89401645D01*
X115215884Y-89482134D01*
X115220952Y-89483165D01*
X115220955Y-89483166D01*
X115329404Y-89505230D01*
X115436981Y-89527117D01*
X115442156Y-89527307D01*
X115442158Y-89527307D01*
X115657292Y-89535196D01*
X115657296Y-89535196D01*
X115662456Y-89535385D01*
X115667576Y-89534729D01*
X115667578Y-89534729D01*
X115736985Y-89525838D01*
X115886253Y-89506716D01*
X115891202Y-89505231D01*
X115891208Y-89505230D01*
X116097413Y-89443365D01*
X116097412Y-89443365D01*
X116102363Y-89441880D01*
X116197419Y-89395312D01*
X116300331Y-89344897D01*
X116300336Y-89344894D01*
X116304982Y-89342618D01*
X116309192Y-89339615D01*
X116309197Y-89339612D01*
X116484455Y-89214601D01*
X116484459Y-89214597D01*
X116488667Y-89211596D01*
X116648487Y-89052333D01*
X116780150Y-88869105D01*
X116880118Y-88666835D01*
X116945708Y-88450952D01*
X116959467Y-88346445D01*
X116974721Y-88230578D01*
X116974722Y-88230572D01*
X116975158Y-88227256D01*
X116976802Y-88160000D01*
X116974037Y-88126362D01*
X122153609Y-88126362D01*
X122153906Y-88131514D01*
X122153906Y-88131518D01*
X122159618Y-88230578D01*
X122166597Y-88351614D01*
X122167734Y-88356660D01*
X122167735Y-88356666D01*
X122188984Y-88450952D01*
X122216200Y-88571720D01*
X122218142Y-88576502D01*
X122218143Y-88576506D01*
X122254822Y-88666835D01*
X122301086Y-88780769D01*
X122418975Y-88973147D01*
X122566702Y-89143687D01*
X122740299Y-89287810D01*
X122744751Y-89290412D01*
X122744756Y-89290415D01*
X122902356Y-89382509D01*
X122935103Y-89401645D01*
X123145884Y-89482134D01*
X123150952Y-89483165D01*
X123150955Y-89483166D01*
X123259404Y-89505230D01*
X123366981Y-89527117D01*
X123372156Y-89527307D01*
X123372158Y-89527307D01*
X123587292Y-89535196D01*
X123587296Y-89535196D01*
X123592456Y-89535385D01*
X123597576Y-89534729D01*
X123597578Y-89534729D01*
X123666985Y-89525838D01*
X123816253Y-89506716D01*
X123821202Y-89505231D01*
X123821208Y-89505230D01*
X124027413Y-89443365D01*
X124027412Y-89443365D01*
X124032363Y-89441880D01*
X124127419Y-89395312D01*
X124230331Y-89344897D01*
X124230336Y-89344894D01*
X124234982Y-89342618D01*
X124239192Y-89339615D01*
X124239197Y-89339612D01*
X124414455Y-89214601D01*
X124414459Y-89214597D01*
X124418667Y-89211596D01*
X124578487Y-89052333D01*
X124672263Y-88921830D01*
X124699370Y-88884107D01*
X124755364Y-88840459D01*
X124826068Y-88834013D01*
X124889032Y-88866816D01*
X124909125Y-88891799D01*
X124956275Y-88968743D01*
X124956279Y-88968748D01*
X124958975Y-88973147D01*
X125106702Y-89143687D01*
X125280299Y-89287810D01*
X125284751Y-89290412D01*
X125284756Y-89290415D01*
X125442356Y-89382509D01*
X125475103Y-89401645D01*
X125685884Y-89482134D01*
X125690952Y-89483165D01*
X125690955Y-89483166D01*
X125799404Y-89505230D01*
X125906981Y-89527117D01*
X125912156Y-89527307D01*
X125912158Y-89527307D01*
X126127292Y-89535196D01*
X126127296Y-89535196D01*
X126132456Y-89535385D01*
X126137576Y-89534729D01*
X126137578Y-89534729D01*
X126206985Y-89525838D01*
X126356253Y-89506716D01*
X126361202Y-89505231D01*
X126361208Y-89505230D01*
X126567413Y-89443365D01*
X126567412Y-89443365D01*
X126572363Y-89441880D01*
X126667419Y-89395312D01*
X126770331Y-89344897D01*
X126770336Y-89344894D01*
X126774982Y-89342618D01*
X126779192Y-89339615D01*
X126779197Y-89339612D01*
X126954455Y-89214601D01*
X126954459Y-89214597D01*
X126958667Y-89211596D01*
X127118487Y-89052333D01*
X127250150Y-88869105D01*
X127350118Y-88666835D01*
X127415708Y-88450952D01*
X127429467Y-88346445D01*
X127444721Y-88230578D01*
X127444722Y-88230572D01*
X127445158Y-88227256D01*
X127446802Y-88160000D01*
X127444037Y-88126362D01*
X132623609Y-88126362D01*
X132623906Y-88131514D01*
X132623906Y-88131518D01*
X132629618Y-88230578D01*
X132636597Y-88351614D01*
X132637734Y-88356660D01*
X132637735Y-88356666D01*
X132658984Y-88450952D01*
X132686200Y-88571720D01*
X132688142Y-88576502D01*
X132688143Y-88576506D01*
X132724822Y-88666835D01*
X132771086Y-88780769D01*
X132888975Y-88973147D01*
X133036702Y-89143687D01*
X133210299Y-89287810D01*
X133214751Y-89290412D01*
X133214756Y-89290415D01*
X133372356Y-89382509D01*
X133405103Y-89401645D01*
X133615884Y-89482134D01*
X133620952Y-89483165D01*
X133620955Y-89483166D01*
X133729404Y-89505230D01*
X133836981Y-89527117D01*
X133842156Y-89527307D01*
X133842158Y-89527307D01*
X134057292Y-89535196D01*
X134057296Y-89535196D01*
X134062456Y-89535385D01*
X134067576Y-89534729D01*
X134067578Y-89534729D01*
X134136985Y-89525838D01*
X134286253Y-89506716D01*
X134291202Y-89505231D01*
X134291208Y-89505230D01*
X134497413Y-89443365D01*
X134497412Y-89443365D01*
X134502363Y-89441880D01*
X134597419Y-89395312D01*
X134700331Y-89344897D01*
X134700336Y-89344894D01*
X134704982Y-89342618D01*
X134709192Y-89339615D01*
X134709197Y-89339612D01*
X134884455Y-89214601D01*
X134884459Y-89214597D01*
X134888667Y-89211596D01*
X135048487Y-89052333D01*
X135142263Y-88921830D01*
X135169370Y-88884107D01*
X135225364Y-88840459D01*
X135296068Y-88834013D01*
X135359032Y-88866816D01*
X135379125Y-88891799D01*
X135426275Y-88968743D01*
X135426279Y-88968748D01*
X135428975Y-88973147D01*
X135576702Y-89143687D01*
X135750299Y-89287810D01*
X135754751Y-89290412D01*
X135754756Y-89290415D01*
X135912356Y-89382509D01*
X135945103Y-89401645D01*
X136155884Y-89482134D01*
X136160952Y-89483165D01*
X136160955Y-89483166D01*
X136269404Y-89505230D01*
X136376981Y-89527117D01*
X136382156Y-89527307D01*
X136382158Y-89527307D01*
X136597292Y-89535196D01*
X136597296Y-89535196D01*
X136602456Y-89535385D01*
X136607576Y-89534729D01*
X136607578Y-89534729D01*
X136676985Y-89525838D01*
X136826253Y-89506716D01*
X136831202Y-89505231D01*
X136831208Y-89505230D01*
X137037413Y-89443365D01*
X137037412Y-89443365D01*
X137042363Y-89441880D01*
X137137419Y-89395312D01*
X137240331Y-89344897D01*
X137240336Y-89344894D01*
X137244982Y-89342618D01*
X137249192Y-89339615D01*
X137249197Y-89339612D01*
X137424455Y-89214601D01*
X137424459Y-89214597D01*
X137428667Y-89211596D01*
X137588487Y-89052333D01*
X137720150Y-88869105D01*
X137820118Y-88666835D01*
X137885708Y-88450952D01*
X137899467Y-88346445D01*
X137914721Y-88230578D01*
X137914722Y-88230572D01*
X137915158Y-88227256D01*
X137916802Y-88160000D01*
X137914037Y-88126362D01*
X143093609Y-88126362D01*
X143093906Y-88131514D01*
X143093906Y-88131518D01*
X143099618Y-88230578D01*
X143106597Y-88351614D01*
X143107734Y-88356660D01*
X143107735Y-88356666D01*
X143128984Y-88450952D01*
X143156200Y-88571720D01*
X143158142Y-88576502D01*
X143158143Y-88576506D01*
X143194822Y-88666835D01*
X143241086Y-88780769D01*
X143358975Y-88973147D01*
X143506702Y-89143687D01*
X143680299Y-89287810D01*
X143684751Y-89290412D01*
X143684756Y-89290415D01*
X143842356Y-89382509D01*
X143875103Y-89401645D01*
X144085884Y-89482134D01*
X144090952Y-89483165D01*
X144090955Y-89483166D01*
X144199404Y-89505230D01*
X144306981Y-89527117D01*
X144312156Y-89527307D01*
X144312158Y-89527307D01*
X144527292Y-89535196D01*
X144527296Y-89535196D01*
X144532456Y-89535385D01*
X144537576Y-89534729D01*
X144537578Y-89534729D01*
X144606985Y-89525838D01*
X144756253Y-89506716D01*
X144761202Y-89505231D01*
X144761208Y-89505230D01*
X144967413Y-89443365D01*
X144967412Y-89443365D01*
X144972363Y-89441880D01*
X145067419Y-89395312D01*
X145170331Y-89344897D01*
X145170336Y-89344894D01*
X145174982Y-89342618D01*
X145179192Y-89339615D01*
X145179197Y-89339612D01*
X145354455Y-89214601D01*
X145354459Y-89214597D01*
X145358667Y-89211596D01*
X145518487Y-89052333D01*
X145612263Y-88921830D01*
X145639370Y-88884107D01*
X145695364Y-88840459D01*
X145766068Y-88834013D01*
X145829032Y-88866816D01*
X145849125Y-88891799D01*
X145896275Y-88968743D01*
X145896279Y-88968748D01*
X145898975Y-88973147D01*
X146046702Y-89143687D01*
X146220299Y-89287810D01*
X146224751Y-89290412D01*
X146224756Y-89290415D01*
X146382356Y-89382509D01*
X146415103Y-89401645D01*
X146625884Y-89482134D01*
X146630952Y-89483165D01*
X146630955Y-89483166D01*
X146739404Y-89505230D01*
X146846981Y-89527117D01*
X146852156Y-89527307D01*
X146852158Y-89527307D01*
X147067292Y-89535196D01*
X147067296Y-89535196D01*
X147072456Y-89535385D01*
X147077576Y-89534729D01*
X147077578Y-89534729D01*
X147146985Y-89525838D01*
X147296253Y-89506716D01*
X147301202Y-89505231D01*
X147301208Y-89505230D01*
X147507413Y-89443365D01*
X147507412Y-89443365D01*
X147512363Y-89441880D01*
X147607419Y-89395312D01*
X147710331Y-89344897D01*
X147710336Y-89344894D01*
X147714982Y-89342618D01*
X147719192Y-89339615D01*
X147719197Y-89339612D01*
X147894455Y-89214601D01*
X147894459Y-89214597D01*
X147898667Y-89211596D01*
X148058487Y-89052333D01*
X148190150Y-88869105D01*
X148290118Y-88666835D01*
X148355708Y-88450952D01*
X148369467Y-88346445D01*
X148384721Y-88230578D01*
X148384722Y-88230572D01*
X148385158Y-88227256D01*
X148386802Y-88160000D01*
X148384037Y-88126362D01*
X153563609Y-88126362D01*
X153563906Y-88131514D01*
X153563906Y-88131518D01*
X153569618Y-88230578D01*
X153576597Y-88351614D01*
X153577734Y-88356660D01*
X153577735Y-88356666D01*
X153598984Y-88450952D01*
X153626200Y-88571720D01*
X153628142Y-88576502D01*
X153628143Y-88576506D01*
X153664822Y-88666835D01*
X153711086Y-88780769D01*
X153828975Y-88973147D01*
X153976702Y-89143687D01*
X154150299Y-89287810D01*
X154154751Y-89290412D01*
X154154756Y-89290415D01*
X154312356Y-89382509D01*
X154345103Y-89401645D01*
X154555884Y-89482134D01*
X154560952Y-89483165D01*
X154560955Y-89483166D01*
X154669404Y-89505230D01*
X154776981Y-89527117D01*
X154782156Y-89527307D01*
X154782158Y-89527307D01*
X154997292Y-89535196D01*
X154997296Y-89535196D01*
X155002456Y-89535385D01*
X155007576Y-89534729D01*
X155007578Y-89534729D01*
X155076985Y-89525838D01*
X155226253Y-89506716D01*
X155231202Y-89505231D01*
X155231208Y-89505230D01*
X155437413Y-89443365D01*
X155437412Y-89443365D01*
X155442363Y-89441880D01*
X155537419Y-89395312D01*
X155640331Y-89344897D01*
X155640336Y-89344894D01*
X155644982Y-89342618D01*
X155649192Y-89339615D01*
X155649197Y-89339612D01*
X155824455Y-89214601D01*
X155824459Y-89214597D01*
X155828667Y-89211596D01*
X155988487Y-89052333D01*
X156082263Y-88921830D01*
X156109370Y-88884107D01*
X156165364Y-88840459D01*
X156236068Y-88834013D01*
X156299032Y-88866816D01*
X156319125Y-88891799D01*
X156366275Y-88968743D01*
X156366279Y-88968748D01*
X156368975Y-88973147D01*
X156516702Y-89143687D01*
X156690299Y-89287810D01*
X156694751Y-89290412D01*
X156694756Y-89290415D01*
X156852356Y-89382509D01*
X156885103Y-89401645D01*
X157095884Y-89482134D01*
X157100952Y-89483165D01*
X157100955Y-89483166D01*
X157209404Y-89505230D01*
X157316981Y-89527117D01*
X157322156Y-89527307D01*
X157322158Y-89527307D01*
X157537292Y-89535196D01*
X157537296Y-89535196D01*
X157542456Y-89535385D01*
X157547576Y-89534729D01*
X157547578Y-89534729D01*
X157616985Y-89525838D01*
X157766253Y-89506716D01*
X157771202Y-89505231D01*
X157771208Y-89505230D01*
X157977413Y-89443365D01*
X157977412Y-89443365D01*
X157982363Y-89441880D01*
X158077419Y-89395312D01*
X158180331Y-89344897D01*
X158180336Y-89344894D01*
X158184982Y-89342618D01*
X158189192Y-89339615D01*
X158189197Y-89339612D01*
X158364455Y-89214601D01*
X158364459Y-89214597D01*
X158368667Y-89211596D01*
X158528487Y-89052333D01*
X158660150Y-88869105D01*
X158760118Y-88666835D01*
X158825708Y-88450952D01*
X158839467Y-88346445D01*
X158854721Y-88230578D01*
X158854722Y-88230572D01*
X158855158Y-88227256D01*
X158856802Y-88160000D01*
X158854037Y-88126362D01*
X164033609Y-88126362D01*
X164033906Y-88131514D01*
X164033906Y-88131518D01*
X164039618Y-88230578D01*
X164046597Y-88351614D01*
X164047734Y-88356660D01*
X164047735Y-88356666D01*
X164068984Y-88450952D01*
X164096200Y-88571720D01*
X164098142Y-88576502D01*
X164098143Y-88576506D01*
X164134822Y-88666835D01*
X164181086Y-88780769D01*
X164298975Y-88973147D01*
X164446702Y-89143687D01*
X164620299Y-89287810D01*
X164624751Y-89290412D01*
X164624756Y-89290415D01*
X164782356Y-89382509D01*
X164815103Y-89401645D01*
X165025884Y-89482134D01*
X165030952Y-89483165D01*
X165030955Y-89483166D01*
X165139404Y-89505230D01*
X165246981Y-89527117D01*
X165252156Y-89527307D01*
X165252158Y-89527307D01*
X165467292Y-89535196D01*
X165467296Y-89535196D01*
X165472456Y-89535385D01*
X165477576Y-89534729D01*
X165477578Y-89534729D01*
X165546985Y-89525838D01*
X165696253Y-89506716D01*
X165701202Y-89505231D01*
X165701208Y-89505230D01*
X165907413Y-89443365D01*
X165907412Y-89443365D01*
X165912363Y-89441880D01*
X166007419Y-89395312D01*
X166110331Y-89344897D01*
X166110336Y-89344894D01*
X166114982Y-89342618D01*
X166119192Y-89339615D01*
X166119197Y-89339612D01*
X166294455Y-89214601D01*
X166294459Y-89214597D01*
X166298667Y-89211596D01*
X166458487Y-89052333D01*
X166552263Y-88921830D01*
X166579370Y-88884107D01*
X166635364Y-88840459D01*
X166706068Y-88834013D01*
X166769032Y-88866816D01*
X166789125Y-88891799D01*
X166836275Y-88968743D01*
X166836279Y-88968748D01*
X166838975Y-88973147D01*
X166986702Y-89143687D01*
X167160299Y-89287810D01*
X167164751Y-89290412D01*
X167164756Y-89290415D01*
X167322356Y-89382509D01*
X167355103Y-89401645D01*
X167565884Y-89482134D01*
X167570952Y-89483165D01*
X167570955Y-89483166D01*
X167679404Y-89505230D01*
X167786981Y-89527117D01*
X167792156Y-89527307D01*
X167792158Y-89527307D01*
X168007292Y-89535196D01*
X168007296Y-89535196D01*
X168012456Y-89535385D01*
X168017576Y-89534729D01*
X168017578Y-89534729D01*
X168086985Y-89525838D01*
X168236253Y-89506716D01*
X168241202Y-89505231D01*
X168241208Y-89505230D01*
X168447413Y-89443365D01*
X168447412Y-89443365D01*
X168452363Y-89441880D01*
X168547419Y-89395312D01*
X168650331Y-89344897D01*
X168650336Y-89344894D01*
X168654982Y-89342618D01*
X168659192Y-89339615D01*
X168659197Y-89339612D01*
X168834455Y-89214601D01*
X168834459Y-89214597D01*
X168838667Y-89211596D01*
X168998487Y-89052333D01*
X169130150Y-88869105D01*
X169230118Y-88666835D01*
X169295708Y-88450952D01*
X169309467Y-88346445D01*
X169324721Y-88230578D01*
X169324722Y-88230572D01*
X169325158Y-88227256D01*
X169326802Y-88160000D01*
X169318492Y-88058918D01*
X173986917Y-88058918D01*
X174002682Y-88332320D01*
X174003507Y-88336525D01*
X174003508Y-88336533D01*
X174033917Y-88491526D01*
X174055405Y-88601053D01*
X174056792Y-88605103D01*
X174056793Y-88605108D01*
X174135165Y-88834013D01*
X174144112Y-88860144D01*
X174267160Y-89104799D01*
X174269586Y-89108328D01*
X174269589Y-89108334D01*
X174392941Y-89287810D01*
X174422274Y-89330490D01*
X174425161Y-89333663D01*
X174425162Y-89333664D01*
X174524982Y-89443365D01*
X174606582Y-89533043D01*
X174816675Y-89708707D01*
X174820316Y-89710991D01*
X175045024Y-89851951D01*
X175045028Y-89851953D01*
X175048664Y-89854234D01*
X175116544Y-89884883D01*
X175294345Y-89965164D01*
X175294349Y-89965166D01*
X175298257Y-89966930D01*
X175302377Y-89968150D01*
X175302376Y-89968150D01*
X175556723Y-90043491D01*
X175556727Y-90043492D01*
X175560836Y-90044709D01*
X175565070Y-90045357D01*
X175565075Y-90045358D01*
X175827298Y-90085483D01*
X175827300Y-90085483D01*
X175831540Y-90086132D01*
X175970912Y-90088322D01*
X176101071Y-90090367D01*
X176101077Y-90090367D01*
X176105362Y-90090434D01*
X176377235Y-90057534D01*
X176642127Y-89988041D01*
X176646087Y-89986401D01*
X176646092Y-89986399D01*
X176768632Y-89935641D01*
X176895136Y-89883241D01*
X177131582Y-89745073D01*
X177347089Y-89576094D01*
X177388809Y-89533043D01*
X177516142Y-89401645D01*
X177537669Y-89379431D01*
X177540202Y-89375983D01*
X177540206Y-89375978D01*
X177697257Y-89162178D01*
X177699795Y-89158723D01*
X177727154Y-89108334D01*
X177828418Y-88921830D01*
X177828419Y-88921828D01*
X177830468Y-88918054D01*
X177918976Y-88683825D01*
X177925751Y-88665895D01*
X177925752Y-88665891D01*
X177927269Y-88661877D01*
X177988407Y-88394933D01*
X177991823Y-88356666D01*
X178012531Y-88124627D01*
X178012531Y-88124625D01*
X178012751Y-88122161D01*
X178013193Y-88080000D01*
X178001410Y-87907150D01*
X177994859Y-87811055D01*
X177994858Y-87811049D01*
X177994567Y-87806778D01*
X177939032Y-87538612D01*
X177847617Y-87280465D01*
X177722013Y-87037112D01*
X177712040Y-87022921D01*
X177576853Y-86830570D01*
X177564545Y-86813057D01*
X177435526Y-86674216D01*
X177381046Y-86615588D01*
X177381043Y-86615585D01*
X177378125Y-86612445D01*
X177374810Y-86609731D01*
X177374806Y-86609728D01*
X177169523Y-86441706D01*
X177166205Y-86438990D01*
X176932704Y-86295901D01*
X176926351Y-86293112D01*
X176685873Y-86187549D01*
X176685869Y-86187548D01*
X176681945Y-86185825D01*
X176418566Y-86110800D01*
X176414324Y-86110196D01*
X176414318Y-86110195D01*
X176213834Y-86081662D01*
X176147443Y-86072213D01*
X176003589Y-86071460D01*
X175877877Y-86070802D01*
X175877871Y-86070802D01*
X175873591Y-86070780D01*
X175869347Y-86071339D01*
X175869343Y-86071339D01*
X175750302Y-86087011D01*
X175602078Y-86106525D01*
X175597938Y-86107658D01*
X175597936Y-86107658D01*
X175546611Y-86121699D01*
X175337928Y-86178788D01*
X175333980Y-86180472D01*
X175089982Y-86284546D01*
X175089978Y-86284548D01*
X175086030Y-86286232D01*
X174990833Y-86343206D01*
X174854725Y-86424664D01*
X174854721Y-86424667D01*
X174851043Y-86426868D01*
X174637318Y-86598094D01*
X174620717Y-86615588D01*
X174455863Y-86789308D01*
X174448808Y-86796742D01*
X174289002Y-87019136D01*
X174160857Y-87261161D01*
X174159385Y-87265184D01*
X174159383Y-87265188D01*
X174068214Y-87514317D01*
X174066743Y-87518337D01*
X174008404Y-87785907D01*
X173986917Y-88058918D01*
X169318492Y-88058918D01*
X169308315Y-87935132D01*
X169253349Y-87716304D01*
X169163380Y-87509391D01*
X169115282Y-87435043D01*
X169043634Y-87324291D01*
X169043632Y-87324288D01*
X169040826Y-87319951D01*
X168888977Y-87153071D01*
X168884926Y-87149872D01*
X168884922Y-87149868D01*
X168715966Y-87016434D01*
X168715962Y-87016432D01*
X168711911Y-87013232D01*
X168707387Y-87010734D01*
X168707383Y-87010732D01*
X168688048Y-87000058D01*
X168638079Y-86949625D01*
X168623308Y-86880182D01*
X168648426Y-86813777D01*
X168675776Y-86787172D01*
X168834136Y-86674216D01*
X168842003Y-86667567D01*
X168994445Y-86515656D01*
X169001122Y-86507811D01*
X169126702Y-86333047D01*
X169132013Y-86324208D01*
X169227358Y-86131292D01*
X169231156Y-86121699D01*
X169293716Y-85915791D01*
X169295893Y-85905721D01*
X169297705Y-85891960D01*
X169295493Y-85877778D01*
X169282336Y-85874000D01*
X164079283Y-85874000D01*
X164065752Y-85877973D01*
X164064315Y-85887966D01*
X164095542Y-86026528D01*
X164098621Y-86036356D01*
X164179589Y-86235756D01*
X164184232Y-86244947D01*
X164296682Y-86428448D01*
X164302765Y-86436759D01*
X164443665Y-86599417D01*
X164451032Y-86606633D01*
X164616606Y-86744095D01*
X164625057Y-86750013D01*
X164674545Y-86778932D01*
X164723268Y-86830570D01*
X164736339Y-86900353D01*
X164709607Y-86966125D01*
X164678932Y-86993608D01*
X164676335Y-86994960D01*
X164672202Y-86998063D01*
X164672199Y-86998065D01*
X164615123Y-87040919D01*
X164495905Y-87130430D01*
X164492333Y-87134168D01*
X164348667Y-87284506D01*
X164340024Y-87293550D01*
X164212878Y-87479940D01*
X164210704Y-87484624D01*
X164210702Y-87484627D01*
X164139402Y-87638231D01*
X164117881Y-87684593D01*
X164057585Y-87902013D01*
X164033609Y-88126362D01*
X158854037Y-88126362D01*
X158838315Y-87935132D01*
X158783349Y-87716304D01*
X158693380Y-87509391D01*
X158645282Y-87435043D01*
X158573634Y-87324291D01*
X158573632Y-87324288D01*
X158570826Y-87319951D01*
X158418977Y-87153071D01*
X158414926Y-87149872D01*
X158414922Y-87149868D01*
X158245966Y-87016434D01*
X158245962Y-87016432D01*
X158241911Y-87013232D01*
X158237387Y-87010734D01*
X158237383Y-87010732D01*
X158218048Y-87000058D01*
X158168079Y-86949625D01*
X158153308Y-86880182D01*
X158178426Y-86813777D01*
X158205776Y-86787172D01*
X158364136Y-86674216D01*
X158372003Y-86667567D01*
X158524445Y-86515656D01*
X158531122Y-86507811D01*
X158656702Y-86333047D01*
X158662013Y-86324208D01*
X158757358Y-86131292D01*
X158761156Y-86121699D01*
X158823716Y-85915791D01*
X158825893Y-85905721D01*
X158827705Y-85891960D01*
X158825493Y-85877778D01*
X158812336Y-85874000D01*
X153609283Y-85874000D01*
X153595752Y-85877973D01*
X153594315Y-85887966D01*
X153625542Y-86026528D01*
X153628621Y-86036356D01*
X153709589Y-86235756D01*
X153714232Y-86244947D01*
X153826682Y-86428448D01*
X153832765Y-86436759D01*
X153973665Y-86599417D01*
X153981032Y-86606633D01*
X154146606Y-86744095D01*
X154155057Y-86750013D01*
X154204545Y-86778932D01*
X154253268Y-86830570D01*
X154266339Y-86900353D01*
X154239607Y-86966125D01*
X154208932Y-86993608D01*
X154206335Y-86994960D01*
X154202202Y-86998063D01*
X154202199Y-86998065D01*
X154145123Y-87040919D01*
X154025905Y-87130430D01*
X154022333Y-87134168D01*
X153878667Y-87284506D01*
X153870024Y-87293550D01*
X153742878Y-87479940D01*
X153740704Y-87484624D01*
X153740702Y-87484627D01*
X153669402Y-87638231D01*
X153647881Y-87684593D01*
X153587585Y-87902013D01*
X153563609Y-88126362D01*
X148384037Y-88126362D01*
X148368315Y-87935132D01*
X148313349Y-87716304D01*
X148223380Y-87509391D01*
X148175282Y-87435043D01*
X148103634Y-87324291D01*
X148103632Y-87324288D01*
X148100826Y-87319951D01*
X147948977Y-87153071D01*
X147944926Y-87149872D01*
X147944922Y-87149868D01*
X147775966Y-87016434D01*
X147775962Y-87016432D01*
X147771911Y-87013232D01*
X147767387Y-87010734D01*
X147767383Y-87010732D01*
X147748048Y-87000058D01*
X147698079Y-86949625D01*
X147683308Y-86880182D01*
X147708426Y-86813777D01*
X147735776Y-86787172D01*
X147894136Y-86674216D01*
X147902003Y-86667567D01*
X148054445Y-86515656D01*
X148061122Y-86507811D01*
X148186702Y-86333047D01*
X148192013Y-86324208D01*
X148287358Y-86131292D01*
X148291156Y-86121699D01*
X148353716Y-85915791D01*
X148355893Y-85905721D01*
X148357705Y-85891960D01*
X148355493Y-85877778D01*
X148342336Y-85874000D01*
X143139283Y-85874000D01*
X143125752Y-85877973D01*
X143124315Y-85887966D01*
X143155542Y-86026528D01*
X143158621Y-86036356D01*
X143239589Y-86235756D01*
X143244232Y-86244947D01*
X143356682Y-86428448D01*
X143362765Y-86436759D01*
X143503665Y-86599417D01*
X143511032Y-86606633D01*
X143676606Y-86744095D01*
X143685057Y-86750013D01*
X143734545Y-86778932D01*
X143783268Y-86830570D01*
X143796339Y-86900353D01*
X143769607Y-86966125D01*
X143738932Y-86993608D01*
X143736335Y-86994960D01*
X143732202Y-86998063D01*
X143732199Y-86998065D01*
X143675123Y-87040919D01*
X143555905Y-87130430D01*
X143552333Y-87134168D01*
X143408667Y-87284506D01*
X143400024Y-87293550D01*
X143272878Y-87479940D01*
X143270704Y-87484624D01*
X143270702Y-87484627D01*
X143199402Y-87638231D01*
X143177881Y-87684593D01*
X143117585Y-87902013D01*
X143093609Y-88126362D01*
X137914037Y-88126362D01*
X137898315Y-87935132D01*
X137843349Y-87716304D01*
X137753380Y-87509391D01*
X137705282Y-87435043D01*
X137633634Y-87324291D01*
X137633632Y-87324288D01*
X137630826Y-87319951D01*
X137478977Y-87153071D01*
X137474926Y-87149872D01*
X137474922Y-87149868D01*
X137305966Y-87016434D01*
X137305962Y-87016432D01*
X137301911Y-87013232D01*
X137297387Y-87010734D01*
X137297383Y-87010732D01*
X137278048Y-87000058D01*
X137228079Y-86949625D01*
X137213308Y-86880182D01*
X137238426Y-86813777D01*
X137265776Y-86787172D01*
X137424136Y-86674216D01*
X137432003Y-86667567D01*
X137584445Y-86515656D01*
X137591122Y-86507811D01*
X137716702Y-86333047D01*
X137722013Y-86324208D01*
X137817358Y-86131292D01*
X137821156Y-86121699D01*
X137883716Y-85915791D01*
X137885893Y-85905721D01*
X137887705Y-85891960D01*
X137885493Y-85877778D01*
X137872336Y-85874000D01*
X132669283Y-85874000D01*
X132655752Y-85877973D01*
X132654315Y-85887966D01*
X132685542Y-86026528D01*
X132688621Y-86036356D01*
X132769589Y-86235756D01*
X132774232Y-86244947D01*
X132886682Y-86428448D01*
X132892765Y-86436759D01*
X133033665Y-86599417D01*
X133041032Y-86606633D01*
X133206606Y-86744095D01*
X133215057Y-86750013D01*
X133264545Y-86778932D01*
X133313268Y-86830570D01*
X133326339Y-86900353D01*
X133299607Y-86966125D01*
X133268932Y-86993608D01*
X133266335Y-86994960D01*
X133262202Y-86998063D01*
X133262199Y-86998065D01*
X133205123Y-87040919D01*
X133085905Y-87130430D01*
X133082333Y-87134168D01*
X132938667Y-87284506D01*
X132930024Y-87293550D01*
X132802878Y-87479940D01*
X132800704Y-87484624D01*
X132800702Y-87484627D01*
X132729402Y-87638231D01*
X132707881Y-87684593D01*
X132647585Y-87902013D01*
X132623609Y-88126362D01*
X127444037Y-88126362D01*
X127428315Y-87935132D01*
X127373349Y-87716304D01*
X127283380Y-87509391D01*
X127235282Y-87435043D01*
X127163634Y-87324291D01*
X127163632Y-87324288D01*
X127160826Y-87319951D01*
X127008977Y-87153071D01*
X127004926Y-87149872D01*
X127004922Y-87149868D01*
X126835966Y-87016434D01*
X126835962Y-87016432D01*
X126831911Y-87013232D01*
X126827387Y-87010734D01*
X126827383Y-87010732D01*
X126808048Y-87000058D01*
X126758079Y-86949625D01*
X126743308Y-86880182D01*
X126768426Y-86813777D01*
X126795776Y-86787172D01*
X126954136Y-86674216D01*
X126962003Y-86667567D01*
X127114445Y-86515656D01*
X127121122Y-86507811D01*
X127246702Y-86333047D01*
X127252013Y-86324208D01*
X127347358Y-86131292D01*
X127351156Y-86121699D01*
X127413716Y-85915791D01*
X127415893Y-85905721D01*
X127417705Y-85891960D01*
X127415493Y-85877778D01*
X127402336Y-85874000D01*
X122199283Y-85874000D01*
X122185752Y-85877973D01*
X122184315Y-85887966D01*
X122215542Y-86026528D01*
X122218621Y-86036356D01*
X122299589Y-86235756D01*
X122304232Y-86244947D01*
X122416682Y-86428448D01*
X122422765Y-86436759D01*
X122563665Y-86599417D01*
X122571032Y-86606633D01*
X122736606Y-86744095D01*
X122745057Y-86750013D01*
X122794545Y-86778932D01*
X122843268Y-86830570D01*
X122856339Y-86900353D01*
X122829607Y-86966125D01*
X122798932Y-86993608D01*
X122796335Y-86994960D01*
X122792202Y-86998063D01*
X122792199Y-86998065D01*
X122735123Y-87040919D01*
X122615905Y-87130430D01*
X122612333Y-87134168D01*
X122468667Y-87284506D01*
X122460024Y-87293550D01*
X122332878Y-87479940D01*
X122330704Y-87484624D01*
X122330702Y-87484627D01*
X122259402Y-87638231D01*
X122237881Y-87684593D01*
X122177585Y-87902013D01*
X122153609Y-88126362D01*
X116974037Y-88126362D01*
X116958315Y-87935132D01*
X116903349Y-87716304D01*
X116813380Y-87509391D01*
X116765282Y-87435043D01*
X116693634Y-87324291D01*
X116693632Y-87324288D01*
X116690826Y-87319951D01*
X116538977Y-87153071D01*
X116534926Y-87149872D01*
X116534922Y-87149868D01*
X116365966Y-87016434D01*
X116365962Y-87016432D01*
X116361911Y-87013232D01*
X116357387Y-87010734D01*
X116357383Y-87010732D01*
X116338048Y-87000058D01*
X116288079Y-86949625D01*
X116273308Y-86880182D01*
X116298426Y-86813777D01*
X116325776Y-86787172D01*
X116484136Y-86674216D01*
X116492003Y-86667567D01*
X116644445Y-86515656D01*
X116651122Y-86507811D01*
X116776702Y-86333047D01*
X116782013Y-86324208D01*
X116877358Y-86131292D01*
X116881156Y-86121699D01*
X116943716Y-85915791D01*
X116945893Y-85905721D01*
X116947705Y-85891960D01*
X116945493Y-85877778D01*
X116932336Y-85874000D01*
X111729283Y-85874000D01*
X111715752Y-85877973D01*
X111714315Y-85887966D01*
X111745542Y-86026528D01*
X111748621Y-86036356D01*
X111829589Y-86235756D01*
X111834232Y-86244947D01*
X111946682Y-86428448D01*
X111952765Y-86436759D01*
X112093665Y-86599417D01*
X112101032Y-86606633D01*
X112266606Y-86744095D01*
X112275057Y-86750013D01*
X112324545Y-86778932D01*
X112373268Y-86830570D01*
X112386339Y-86900353D01*
X112359607Y-86966125D01*
X112328932Y-86993608D01*
X112326335Y-86994960D01*
X112322202Y-86998063D01*
X112322199Y-86998065D01*
X112265123Y-87040919D01*
X112145905Y-87130430D01*
X112142333Y-87134168D01*
X111998667Y-87284506D01*
X111990024Y-87293550D01*
X111862878Y-87479940D01*
X111860704Y-87484624D01*
X111860702Y-87484627D01*
X111789402Y-87638231D01*
X111767881Y-87684593D01*
X111707585Y-87902013D01*
X111683609Y-88126362D01*
X107012376Y-88126362D01*
X107012531Y-88124627D01*
X107012531Y-88124625D01*
X107012751Y-88122161D01*
X107013193Y-88080000D01*
X107001410Y-87907150D01*
X106994859Y-87811055D01*
X106994858Y-87811049D01*
X106994567Y-87806778D01*
X106939032Y-87538612D01*
X106847617Y-87280465D01*
X106722013Y-87037112D01*
X106712040Y-87022921D01*
X106576853Y-86830570D01*
X106564545Y-86813057D01*
X106435526Y-86674216D01*
X106381046Y-86615588D01*
X106381043Y-86615585D01*
X106378125Y-86612445D01*
X106374810Y-86609731D01*
X106374806Y-86609728D01*
X106169523Y-86441706D01*
X106166205Y-86438990D01*
X105932704Y-86295901D01*
X105926351Y-86293112D01*
X105685873Y-86187549D01*
X105685869Y-86187548D01*
X105681945Y-86185825D01*
X105418566Y-86110800D01*
X105414324Y-86110196D01*
X105414318Y-86110195D01*
X105213834Y-86081662D01*
X105147443Y-86072213D01*
X105003589Y-86071460D01*
X104877877Y-86070802D01*
X104877871Y-86070802D01*
X104873591Y-86070780D01*
X104869347Y-86071339D01*
X104869343Y-86071339D01*
X104750302Y-86087011D01*
X104602078Y-86106525D01*
X104597938Y-86107658D01*
X104597936Y-86107658D01*
X104546611Y-86121699D01*
X104337928Y-86178788D01*
X104333980Y-86180472D01*
X104089982Y-86284546D01*
X104089978Y-86284548D01*
X104086030Y-86286232D01*
X103990833Y-86343206D01*
X103854725Y-86424664D01*
X103854721Y-86424667D01*
X103851043Y-86426868D01*
X103637318Y-86598094D01*
X103620717Y-86615588D01*
X103455863Y-86789308D01*
X103448808Y-86796742D01*
X103289002Y-87019136D01*
X103160857Y-87261161D01*
X103159385Y-87265184D01*
X103159383Y-87265188D01*
X103068214Y-87514317D01*
X103066743Y-87518337D01*
X103008404Y-87785907D01*
X102986917Y-88058918D01*
X100508000Y-88058918D01*
X100508000Y-85353239D01*
X111710536Y-85353239D01*
X111712233Y-85362609D01*
X111724610Y-85366000D01*
X112787885Y-85366000D01*
X112803124Y-85361525D01*
X112804329Y-85360135D01*
X112806000Y-85352452D01*
X112806000Y-85347885D01*
X113314000Y-85347885D01*
X113318475Y-85363124D01*
X113319865Y-85364329D01*
X113327548Y-85366000D01*
X115327885Y-85366000D01*
X115343124Y-85361525D01*
X115344329Y-85360135D01*
X115346000Y-85352452D01*
X115346000Y-85347885D01*
X115854000Y-85347885D01*
X115858475Y-85363124D01*
X115859865Y-85364329D01*
X115867548Y-85366000D01*
X116932367Y-85366000D01*
X116945898Y-85362027D01*
X116947161Y-85353239D01*
X122180536Y-85353239D01*
X122182233Y-85362609D01*
X122194610Y-85366000D01*
X123257885Y-85366000D01*
X123273124Y-85361525D01*
X123274329Y-85360135D01*
X123276000Y-85352452D01*
X123276000Y-85347885D01*
X123784000Y-85347885D01*
X123788475Y-85363124D01*
X123789865Y-85364329D01*
X123797548Y-85366000D01*
X125797885Y-85366000D01*
X125813124Y-85361525D01*
X125814329Y-85360135D01*
X125816000Y-85352452D01*
X125816000Y-85347885D01*
X126324000Y-85347885D01*
X126328475Y-85363124D01*
X126329865Y-85364329D01*
X126337548Y-85366000D01*
X127402367Y-85366000D01*
X127415898Y-85362027D01*
X127417161Y-85353239D01*
X132650536Y-85353239D01*
X132652233Y-85362609D01*
X132664610Y-85366000D01*
X133727885Y-85366000D01*
X133743124Y-85361525D01*
X133744329Y-85360135D01*
X133746000Y-85352452D01*
X133746000Y-85347885D01*
X134254000Y-85347885D01*
X134258475Y-85363124D01*
X134259865Y-85364329D01*
X134267548Y-85366000D01*
X136267885Y-85366000D01*
X136283124Y-85361525D01*
X136284329Y-85360135D01*
X136286000Y-85352452D01*
X136286000Y-85347885D01*
X136794000Y-85347885D01*
X136798475Y-85363124D01*
X136799865Y-85364329D01*
X136807548Y-85366000D01*
X137872367Y-85366000D01*
X137885898Y-85362027D01*
X137887161Y-85353239D01*
X143120536Y-85353239D01*
X143122233Y-85362609D01*
X143134610Y-85366000D01*
X144197885Y-85366000D01*
X144213124Y-85361525D01*
X144214329Y-85360135D01*
X144216000Y-85352452D01*
X144216000Y-85347885D01*
X144724000Y-85347885D01*
X144728475Y-85363124D01*
X144729865Y-85364329D01*
X144737548Y-85366000D01*
X146737885Y-85366000D01*
X146753124Y-85361525D01*
X146754329Y-85360135D01*
X146756000Y-85352452D01*
X146756000Y-85347885D01*
X147264000Y-85347885D01*
X147268475Y-85363124D01*
X147269865Y-85364329D01*
X147277548Y-85366000D01*
X148342367Y-85366000D01*
X148355898Y-85362027D01*
X148357161Y-85353239D01*
X153590536Y-85353239D01*
X153592233Y-85362609D01*
X153604610Y-85366000D01*
X154667885Y-85366000D01*
X154683124Y-85361525D01*
X154684329Y-85360135D01*
X154686000Y-85352452D01*
X154686000Y-85347885D01*
X155194000Y-85347885D01*
X155198475Y-85363124D01*
X155199865Y-85364329D01*
X155207548Y-85366000D01*
X157207885Y-85366000D01*
X157223124Y-85361525D01*
X157224329Y-85360135D01*
X157226000Y-85352452D01*
X157226000Y-85347885D01*
X157734000Y-85347885D01*
X157738475Y-85363124D01*
X157739865Y-85364329D01*
X157747548Y-85366000D01*
X158812367Y-85366000D01*
X158825898Y-85362027D01*
X158827161Y-85353239D01*
X164060536Y-85353239D01*
X164062233Y-85362609D01*
X164074610Y-85366000D01*
X165137885Y-85366000D01*
X165153124Y-85361525D01*
X165154329Y-85360135D01*
X165156000Y-85352452D01*
X165156000Y-85347885D01*
X165664000Y-85347885D01*
X165668475Y-85363124D01*
X165669865Y-85364329D01*
X165677548Y-85366000D01*
X167677885Y-85366000D01*
X167693124Y-85361525D01*
X167694329Y-85360135D01*
X167696000Y-85352452D01*
X167696000Y-85347885D01*
X168204000Y-85347885D01*
X168208475Y-85363124D01*
X168209865Y-85364329D01*
X168217548Y-85366000D01*
X169282367Y-85366000D01*
X169295898Y-85362027D01*
X169297203Y-85352947D01*
X169254133Y-85181477D01*
X169250813Y-85171726D01*
X169164999Y-84974365D01*
X169160133Y-84965290D01*
X169043239Y-84784601D01*
X169036947Y-84776430D01*
X168892113Y-84617260D01*
X168884580Y-84610234D01*
X168858521Y-84589654D01*
X174775618Y-84589654D01*
X174782673Y-84599627D01*
X174813679Y-84625551D01*
X174820598Y-84630579D01*
X175045272Y-84771515D01*
X175052807Y-84775556D01*
X175294520Y-84884694D01*
X175302551Y-84887680D01*
X175556832Y-84963002D01*
X175565184Y-84964869D01*
X175827340Y-85004984D01*
X175835874Y-85005700D01*
X176101045Y-85009867D01*
X176109596Y-85009418D01*
X176372883Y-84977557D01*
X176381284Y-84975955D01*
X176637824Y-84908653D01*
X176645926Y-84905926D01*
X176890949Y-84804434D01*
X176898617Y-84800628D01*
X177127598Y-84666822D01*
X177134679Y-84662009D01*
X177214655Y-84599301D01*
X177223125Y-84587442D01*
X177216608Y-84575818D01*
X176012812Y-83372022D01*
X175998868Y-83364408D01*
X175997035Y-83364539D01*
X175990420Y-83368790D01*
X174782910Y-84576300D01*
X174775618Y-84589654D01*
X168858521Y-84589654D01*
X168715691Y-84476855D01*
X168707108Y-84471153D01*
X168687599Y-84460383D01*
X168637628Y-84409950D01*
X168622856Y-84340507D01*
X168647972Y-84274102D01*
X168675323Y-84247496D01*
X168834133Y-84134217D01*
X168842003Y-84127567D01*
X168994445Y-83975656D01*
X169001122Y-83967811D01*
X169126702Y-83793047D01*
X169132013Y-83784208D01*
X169227358Y-83591292D01*
X169231156Y-83581699D01*
X169293716Y-83375791D01*
X169295893Y-83365721D01*
X169297705Y-83351960D01*
X169295493Y-83337778D01*
X169282336Y-83334000D01*
X168222115Y-83334000D01*
X168206876Y-83338475D01*
X168205671Y-83339865D01*
X168204000Y-83347548D01*
X168204000Y-85347885D01*
X167696000Y-85347885D01*
X167696000Y-83352115D01*
X167691525Y-83336876D01*
X167690135Y-83335671D01*
X167682452Y-83334000D01*
X165682115Y-83334000D01*
X165666876Y-83338475D01*
X165665671Y-83339865D01*
X165664000Y-83347548D01*
X165664000Y-85347885D01*
X165156000Y-85347885D01*
X165156000Y-83352115D01*
X165151525Y-83336876D01*
X165150135Y-83335671D01*
X165142452Y-83334000D01*
X164079283Y-83334000D01*
X164065752Y-83337973D01*
X164064315Y-83347966D01*
X164095542Y-83486528D01*
X164098621Y-83496356D01*
X164179589Y-83695756D01*
X164184232Y-83704947D01*
X164296682Y-83888448D01*
X164302765Y-83896759D01*
X164443665Y-84059417D01*
X164451032Y-84066633D01*
X164616606Y-84204095D01*
X164625053Y-84210010D01*
X164675031Y-84239215D01*
X164723755Y-84290854D01*
X164736826Y-84360636D01*
X164710095Y-84426408D01*
X164678605Y-84454622D01*
X164672469Y-84458486D01*
X164500373Y-84587700D01*
X164492666Y-84594543D01*
X164343984Y-84750129D01*
X164337498Y-84758139D01*
X164216232Y-84935908D01*
X164211134Y-84944882D01*
X164120530Y-85140071D01*
X164116967Y-85149758D01*
X164060536Y-85353239D01*
X158827161Y-85353239D01*
X158827203Y-85352947D01*
X158784133Y-85181477D01*
X158780813Y-85171726D01*
X158694999Y-84974365D01*
X158690133Y-84965290D01*
X158573239Y-84784601D01*
X158566947Y-84776430D01*
X158422113Y-84617260D01*
X158414580Y-84610234D01*
X158245691Y-84476855D01*
X158237108Y-84471153D01*
X158217599Y-84460383D01*
X158167628Y-84409950D01*
X158152856Y-84340507D01*
X158177972Y-84274102D01*
X158205323Y-84247496D01*
X158364133Y-84134217D01*
X158372003Y-84127567D01*
X158524445Y-83975656D01*
X158531122Y-83967811D01*
X158656702Y-83793047D01*
X158662013Y-83784208D01*
X158757358Y-83591292D01*
X158761156Y-83581699D01*
X158823716Y-83375791D01*
X158825893Y-83365721D01*
X158827705Y-83351960D01*
X158825493Y-83337778D01*
X158812336Y-83334000D01*
X157752115Y-83334000D01*
X157736876Y-83338475D01*
X157735671Y-83339865D01*
X157734000Y-83347548D01*
X157734000Y-85347885D01*
X157226000Y-85347885D01*
X157226000Y-83352115D01*
X157221525Y-83336876D01*
X157220135Y-83335671D01*
X157212452Y-83334000D01*
X155212115Y-83334000D01*
X155196876Y-83338475D01*
X155195671Y-83339865D01*
X155194000Y-83347548D01*
X155194000Y-85347885D01*
X154686000Y-85347885D01*
X154686000Y-83352115D01*
X154681525Y-83336876D01*
X154680135Y-83335671D01*
X154672452Y-83334000D01*
X153609283Y-83334000D01*
X153595752Y-83337973D01*
X153594315Y-83347966D01*
X153625542Y-83486528D01*
X153628621Y-83496356D01*
X153709589Y-83695756D01*
X153714232Y-83704947D01*
X153826682Y-83888448D01*
X153832765Y-83896759D01*
X153973665Y-84059417D01*
X153981032Y-84066633D01*
X154146606Y-84204095D01*
X154155053Y-84210010D01*
X154205031Y-84239215D01*
X154253755Y-84290854D01*
X154266826Y-84360636D01*
X154240095Y-84426408D01*
X154208605Y-84454622D01*
X154202469Y-84458486D01*
X154030373Y-84587700D01*
X154022666Y-84594543D01*
X153873984Y-84750129D01*
X153867498Y-84758139D01*
X153746232Y-84935908D01*
X153741134Y-84944882D01*
X153650530Y-85140071D01*
X153646967Y-85149758D01*
X153590536Y-85353239D01*
X148357161Y-85353239D01*
X148357203Y-85352947D01*
X148314133Y-85181477D01*
X148310813Y-85171726D01*
X148224999Y-84974365D01*
X148220133Y-84965290D01*
X148103239Y-84784601D01*
X148096947Y-84776430D01*
X147952113Y-84617260D01*
X147944580Y-84610234D01*
X147775691Y-84476855D01*
X147767108Y-84471153D01*
X147747599Y-84460383D01*
X147697628Y-84409950D01*
X147682856Y-84340507D01*
X147707972Y-84274102D01*
X147735323Y-84247496D01*
X147894133Y-84134217D01*
X147902003Y-84127567D01*
X148054445Y-83975656D01*
X148061122Y-83967811D01*
X148186702Y-83793047D01*
X148192013Y-83784208D01*
X148287358Y-83591292D01*
X148291156Y-83581699D01*
X148353716Y-83375791D01*
X148355893Y-83365721D01*
X148357705Y-83351960D01*
X148355493Y-83337778D01*
X148342336Y-83334000D01*
X147282115Y-83334000D01*
X147266876Y-83338475D01*
X147265671Y-83339865D01*
X147264000Y-83347548D01*
X147264000Y-85347885D01*
X146756000Y-85347885D01*
X146756000Y-83352115D01*
X146751525Y-83336876D01*
X146750135Y-83335671D01*
X146742452Y-83334000D01*
X144742115Y-83334000D01*
X144726876Y-83338475D01*
X144725671Y-83339865D01*
X144724000Y-83347548D01*
X144724000Y-85347885D01*
X144216000Y-85347885D01*
X144216000Y-83352115D01*
X144211525Y-83336876D01*
X144210135Y-83335671D01*
X144202452Y-83334000D01*
X143139283Y-83334000D01*
X143125752Y-83337973D01*
X143124315Y-83347966D01*
X143155542Y-83486528D01*
X143158621Y-83496356D01*
X143239589Y-83695756D01*
X143244232Y-83704947D01*
X143356682Y-83888448D01*
X143362765Y-83896759D01*
X143503665Y-84059417D01*
X143511032Y-84066633D01*
X143676606Y-84204095D01*
X143685053Y-84210010D01*
X143735031Y-84239215D01*
X143783755Y-84290854D01*
X143796826Y-84360636D01*
X143770095Y-84426408D01*
X143738605Y-84454622D01*
X143732469Y-84458486D01*
X143560373Y-84587700D01*
X143552666Y-84594543D01*
X143403984Y-84750129D01*
X143397498Y-84758139D01*
X143276232Y-84935908D01*
X143271134Y-84944882D01*
X143180530Y-85140071D01*
X143176967Y-85149758D01*
X143120536Y-85353239D01*
X137887161Y-85353239D01*
X137887203Y-85352947D01*
X137844133Y-85181477D01*
X137840813Y-85171726D01*
X137754999Y-84974365D01*
X137750133Y-84965290D01*
X137633239Y-84784601D01*
X137626947Y-84776430D01*
X137482113Y-84617260D01*
X137474580Y-84610234D01*
X137305691Y-84476855D01*
X137297108Y-84471153D01*
X137277599Y-84460383D01*
X137227628Y-84409950D01*
X137212856Y-84340507D01*
X137237972Y-84274102D01*
X137265323Y-84247496D01*
X137424133Y-84134217D01*
X137432003Y-84127567D01*
X137584445Y-83975656D01*
X137591122Y-83967811D01*
X137716702Y-83793047D01*
X137722013Y-83784208D01*
X137817358Y-83591292D01*
X137821156Y-83581699D01*
X137883716Y-83375791D01*
X137885893Y-83365721D01*
X137887705Y-83351960D01*
X137885493Y-83337778D01*
X137872336Y-83334000D01*
X136812115Y-83334000D01*
X136796876Y-83338475D01*
X136795671Y-83339865D01*
X136794000Y-83347548D01*
X136794000Y-85347885D01*
X136286000Y-85347885D01*
X136286000Y-83352115D01*
X136281525Y-83336876D01*
X136280135Y-83335671D01*
X136272452Y-83334000D01*
X134272115Y-83334000D01*
X134256876Y-83338475D01*
X134255671Y-83339865D01*
X134254000Y-83347548D01*
X134254000Y-85347885D01*
X133746000Y-85347885D01*
X133746000Y-83352115D01*
X133741525Y-83336876D01*
X133740135Y-83335671D01*
X133732452Y-83334000D01*
X132669283Y-83334000D01*
X132655752Y-83337973D01*
X132654315Y-83347966D01*
X132685542Y-83486528D01*
X132688621Y-83496356D01*
X132769589Y-83695756D01*
X132774232Y-83704947D01*
X132886682Y-83888448D01*
X132892765Y-83896759D01*
X133033665Y-84059417D01*
X133041032Y-84066633D01*
X133206606Y-84204095D01*
X133215053Y-84210010D01*
X133265031Y-84239215D01*
X133313755Y-84290854D01*
X133326826Y-84360636D01*
X133300095Y-84426408D01*
X133268605Y-84454622D01*
X133262469Y-84458486D01*
X133090373Y-84587700D01*
X133082666Y-84594543D01*
X132933984Y-84750129D01*
X132927498Y-84758139D01*
X132806232Y-84935908D01*
X132801134Y-84944882D01*
X132710530Y-85140071D01*
X132706967Y-85149758D01*
X132650536Y-85353239D01*
X127417161Y-85353239D01*
X127417203Y-85352947D01*
X127374133Y-85181477D01*
X127370813Y-85171726D01*
X127284999Y-84974365D01*
X127280133Y-84965290D01*
X127163239Y-84784601D01*
X127156947Y-84776430D01*
X127012113Y-84617260D01*
X127004580Y-84610234D01*
X126835691Y-84476855D01*
X126827108Y-84471153D01*
X126807599Y-84460383D01*
X126757628Y-84409950D01*
X126742856Y-84340507D01*
X126767972Y-84274102D01*
X126795323Y-84247496D01*
X126954133Y-84134217D01*
X126962003Y-84127567D01*
X127114445Y-83975656D01*
X127121122Y-83967811D01*
X127246702Y-83793047D01*
X127252013Y-83784208D01*
X127347358Y-83591292D01*
X127351156Y-83581699D01*
X127413716Y-83375791D01*
X127415893Y-83365721D01*
X127417705Y-83351960D01*
X127415493Y-83337778D01*
X127402336Y-83334000D01*
X126342115Y-83334000D01*
X126326876Y-83338475D01*
X126325671Y-83339865D01*
X126324000Y-83347548D01*
X126324000Y-85347885D01*
X125816000Y-85347885D01*
X125816000Y-83352115D01*
X125811525Y-83336876D01*
X125810135Y-83335671D01*
X125802452Y-83334000D01*
X123802115Y-83334000D01*
X123786876Y-83338475D01*
X123785671Y-83339865D01*
X123784000Y-83347548D01*
X123784000Y-85347885D01*
X123276000Y-85347885D01*
X123276000Y-83352115D01*
X123271525Y-83336876D01*
X123270135Y-83335671D01*
X123262452Y-83334000D01*
X122199283Y-83334000D01*
X122185752Y-83337973D01*
X122184315Y-83347966D01*
X122215542Y-83486528D01*
X122218621Y-83496356D01*
X122299589Y-83695756D01*
X122304232Y-83704947D01*
X122416682Y-83888448D01*
X122422765Y-83896759D01*
X122563665Y-84059417D01*
X122571032Y-84066633D01*
X122736606Y-84204095D01*
X122745053Y-84210010D01*
X122795031Y-84239215D01*
X122843755Y-84290854D01*
X122856826Y-84360636D01*
X122830095Y-84426408D01*
X122798605Y-84454622D01*
X122792469Y-84458486D01*
X122620373Y-84587700D01*
X122612666Y-84594543D01*
X122463984Y-84750129D01*
X122457498Y-84758139D01*
X122336232Y-84935908D01*
X122331134Y-84944882D01*
X122240530Y-85140071D01*
X122236967Y-85149758D01*
X122180536Y-85353239D01*
X116947161Y-85353239D01*
X116947203Y-85352947D01*
X116904133Y-85181477D01*
X116900813Y-85171726D01*
X116814999Y-84974365D01*
X116810133Y-84965290D01*
X116693239Y-84784601D01*
X116686947Y-84776430D01*
X116542113Y-84617260D01*
X116534580Y-84610234D01*
X116365691Y-84476855D01*
X116357108Y-84471153D01*
X116337599Y-84460383D01*
X116287628Y-84409950D01*
X116272856Y-84340507D01*
X116297972Y-84274102D01*
X116325323Y-84247496D01*
X116484133Y-84134217D01*
X116492003Y-84127567D01*
X116644445Y-83975656D01*
X116651122Y-83967811D01*
X116776702Y-83793047D01*
X116782013Y-83784208D01*
X116877358Y-83591292D01*
X116881156Y-83581699D01*
X116943716Y-83375791D01*
X116945893Y-83365721D01*
X116947705Y-83351960D01*
X116945493Y-83337778D01*
X116932336Y-83334000D01*
X115872115Y-83334000D01*
X115856876Y-83338475D01*
X115855671Y-83339865D01*
X115854000Y-83347548D01*
X115854000Y-85347885D01*
X115346000Y-85347885D01*
X115346000Y-83352115D01*
X115341525Y-83336876D01*
X115340135Y-83335671D01*
X115332452Y-83334000D01*
X113332115Y-83334000D01*
X113316876Y-83338475D01*
X113315671Y-83339865D01*
X113314000Y-83347548D01*
X113314000Y-85347885D01*
X112806000Y-85347885D01*
X112806000Y-83352115D01*
X112801525Y-83336876D01*
X112800135Y-83335671D01*
X112792452Y-83334000D01*
X111729283Y-83334000D01*
X111715752Y-83337973D01*
X111714315Y-83347966D01*
X111745542Y-83486528D01*
X111748621Y-83496356D01*
X111829589Y-83695756D01*
X111834232Y-83704947D01*
X111946682Y-83888448D01*
X111952765Y-83896759D01*
X112093665Y-84059417D01*
X112101032Y-84066633D01*
X112266606Y-84204095D01*
X112275053Y-84210010D01*
X112325031Y-84239215D01*
X112373755Y-84290854D01*
X112386826Y-84360636D01*
X112360095Y-84426408D01*
X112328605Y-84454622D01*
X112322469Y-84458486D01*
X112150373Y-84587700D01*
X112142666Y-84594543D01*
X111993984Y-84750129D01*
X111987498Y-84758139D01*
X111866232Y-84935908D01*
X111861134Y-84944882D01*
X111770530Y-85140071D01*
X111766967Y-85149758D01*
X111710536Y-85353239D01*
X100508000Y-85353239D01*
X100508000Y-84589654D01*
X103775618Y-84589654D01*
X103782673Y-84599627D01*
X103813679Y-84625551D01*
X103820598Y-84630579D01*
X104045272Y-84771515D01*
X104052807Y-84775556D01*
X104294520Y-84884694D01*
X104302551Y-84887680D01*
X104556832Y-84963002D01*
X104565184Y-84964869D01*
X104827340Y-85004984D01*
X104835874Y-85005700D01*
X105101045Y-85009867D01*
X105109596Y-85009418D01*
X105372883Y-84977557D01*
X105381284Y-84975955D01*
X105637824Y-84908653D01*
X105645926Y-84905926D01*
X105890949Y-84804434D01*
X105898617Y-84800628D01*
X106127598Y-84666822D01*
X106134679Y-84662009D01*
X106214655Y-84599301D01*
X106223125Y-84587442D01*
X106216608Y-84575818D01*
X105012812Y-83372022D01*
X104998868Y-83364408D01*
X104997035Y-83364539D01*
X104990420Y-83368790D01*
X103782910Y-84576300D01*
X103775618Y-84589654D01*
X100508000Y-84589654D01*
X100508000Y-82983204D01*
X102987665Y-82983204D01*
X103002932Y-83247969D01*
X103004005Y-83256470D01*
X103055065Y-83516722D01*
X103057276Y-83524974D01*
X103143184Y-83775894D01*
X103146499Y-83783779D01*
X103265664Y-84020713D01*
X103270020Y-84028079D01*
X103399347Y-84216250D01*
X103409601Y-84224594D01*
X103423342Y-84217448D01*
X104627978Y-83012812D01*
X104634356Y-83001132D01*
X105364408Y-83001132D01*
X105364539Y-83002965D01*
X105368790Y-83009580D01*
X106575730Y-84216520D01*
X106587939Y-84223187D01*
X106599439Y-84214497D01*
X106696831Y-84081913D01*
X106701418Y-84074685D01*
X106827962Y-83841621D01*
X106831530Y-83833827D01*
X106925271Y-83585750D01*
X106927748Y-83577544D01*
X106986954Y-83319038D01*
X106988294Y-83310577D01*
X107012031Y-83044616D01*
X107012277Y-83039677D01*
X107012666Y-83002485D01*
X107012523Y-82997519D01*
X107011547Y-82983204D01*
X173987665Y-82983204D01*
X174002932Y-83247969D01*
X174004005Y-83256470D01*
X174055065Y-83516722D01*
X174057276Y-83524974D01*
X174143184Y-83775894D01*
X174146499Y-83783779D01*
X174265664Y-84020713D01*
X174270020Y-84028079D01*
X174399347Y-84216250D01*
X174409601Y-84224594D01*
X174423342Y-84217448D01*
X175627978Y-83012812D01*
X175634356Y-83001132D01*
X176364408Y-83001132D01*
X176364539Y-83002965D01*
X176368790Y-83009580D01*
X177575730Y-84216520D01*
X177587939Y-84223187D01*
X177599439Y-84214497D01*
X177696831Y-84081913D01*
X177701418Y-84074685D01*
X177827962Y-83841621D01*
X177831530Y-83833827D01*
X177925271Y-83585750D01*
X177927748Y-83577544D01*
X177986954Y-83319038D01*
X177988294Y-83310577D01*
X178012031Y-83044616D01*
X178012277Y-83039677D01*
X178012666Y-83002485D01*
X178012523Y-82997519D01*
X177994362Y-82731123D01*
X177993201Y-82722649D01*
X177939419Y-82462944D01*
X177937120Y-82454709D01*
X177848588Y-82204705D01*
X177845191Y-82196854D01*
X177723550Y-81961178D01*
X177719122Y-81953866D01*
X177600031Y-81784417D01*
X177589509Y-81776037D01*
X177576121Y-81783089D01*
X176372022Y-82987188D01*
X176364408Y-83001132D01*
X175634356Y-83001132D01*
X175635592Y-82998868D01*
X175635461Y-82997035D01*
X175631210Y-82990420D01*
X174423814Y-81783024D01*
X174411804Y-81776466D01*
X174400064Y-81785434D01*
X174291935Y-81935911D01*
X174287418Y-81943196D01*
X174163325Y-82177567D01*
X174159839Y-82185395D01*
X174068700Y-82434446D01*
X174066311Y-82442670D01*
X174009812Y-82701795D01*
X174008563Y-82710250D01*
X173987754Y-82974653D01*
X173987665Y-82983204D01*
X107011547Y-82983204D01*
X106999960Y-82813239D01*
X111710536Y-82813239D01*
X111712233Y-82822609D01*
X111724610Y-82826000D01*
X112787885Y-82826000D01*
X112803124Y-82821525D01*
X112804329Y-82820135D01*
X112806000Y-82812452D01*
X112806000Y-82807885D01*
X113314000Y-82807885D01*
X113318475Y-82823124D01*
X113319865Y-82824329D01*
X113327548Y-82826000D01*
X115327885Y-82826000D01*
X115343124Y-82821525D01*
X115344329Y-82820135D01*
X115346000Y-82812452D01*
X115346000Y-82807885D01*
X115854000Y-82807885D01*
X115858475Y-82823124D01*
X115859865Y-82824329D01*
X115867548Y-82826000D01*
X116932367Y-82826000D01*
X116945898Y-82822027D01*
X116947161Y-82813239D01*
X122180536Y-82813239D01*
X122182233Y-82822609D01*
X122194610Y-82826000D01*
X123257885Y-82826000D01*
X123273124Y-82821525D01*
X123274329Y-82820135D01*
X123276000Y-82812452D01*
X123276000Y-82807885D01*
X123784000Y-82807885D01*
X123788475Y-82823124D01*
X123789865Y-82824329D01*
X123797548Y-82826000D01*
X125797885Y-82826000D01*
X125813124Y-82821525D01*
X125814329Y-82820135D01*
X125816000Y-82812452D01*
X125816000Y-82807885D01*
X126324000Y-82807885D01*
X126328475Y-82823124D01*
X126329865Y-82824329D01*
X126337548Y-82826000D01*
X127402367Y-82826000D01*
X127415898Y-82822027D01*
X127417161Y-82813239D01*
X132650536Y-82813239D01*
X132652233Y-82822609D01*
X132664610Y-82826000D01*
X133727885Y-82826000D01*
X133743124Y-82821525D01*
X133744329Y-82820135D01*
X133746000Y-82812452D01*
X133746000Y-82807885D01*
X134254000Y-82807885D01*
X134258475Y-82823124D01*
X134259865Y-82824329D01*
X134267548Y-82826000D01*
X136267885Y-82826000D01*
X136283124Y-82821525D01*
X136284329Y-82820135D01*
X136286000Y-82812452D01*
X136286000Y-82807885D01*
X136794000Y-82807885D01*
X136798475Y-82823124D01*
X136799865Y-82824329D01*
X136807548Y-82826000D01*
X137872367Y-82826000D01*
X137885898Y-82822027D01*
X137887161Y-82813239D01*
X143120536Y-82813239D01*
X143122233Y-82822609D01*
X143134610Y-82826000D01*
X144197885Y-82826000D01*
X144213124Y-82821525D01*
X144214329Y-82820135D01*
X144216000Y-82812452D01*
X144216000Y-82807885D01*
X144724000Y-82807885D01*
X144728475Y-82823124D01*
X144729865Y-82824329D01*
X144737548Y-82826000D01*
X146737885Y-82826000D01*
X146753124Y-82821525D01*
X146754329Y-82820135D01*
X146756000Y-82812452D01*
X146756000Y-82807885D01*
X147264000Y-82807885D01*
X147268475Y-82823124D01*
X147269865Y-82824329D01*
X147277548Y-82826000D01*
X148342367Y-82826000D01*
X148355898Y-82822027D01*
X148357161Y-82813239D01*
X153590536Y-82813239D01*
X153592233Y-82822609D01*
X153604610Y-82826000D01*
X154667885Y-82826000D01*
X154683124Y-82821525D01*
X154684329Y-82820135D01*
X154686000Y-82812452D01*
X154686000Y-82807885D01*
X155194000Y-82807885D01*
X155198475Y-82823124D01*
X155199865Y-82824329D01*
X155207548Y-82826000D01*
X157207885Y-82826000D01*
X157223124Y-82821525D01*
X157224329Y-82820135D01*
X157226000Y-82812452D01*
X157226000Y-82807885D01*
X157734000Y-82807885D01*
X157738475Y-82823124D01*
X157739865Y-82824329D01*
X157747548Y-82826000D01*
X158812367Y-82826000D01*
X158825898Y-82822027D01*
X158827161Y-82813239D01*
X164060536Y-82813239D01*
X164062233Y-82822609D01*
X164074610Y-82826000D01*
X165137885Y-82826000D01*
X165153124Y-82821525D01*
X165154329Y-82820135D01*
X165156000Y-82812452D01*
X165156000Y-82807885D01*
X165664000Y-82807885D01*
X165668475Y-82823124D01*
X165669865Y-82824329D01*
X165677548Y-82826000D01*
X167677885Y-82826000D01*
X167693124Y-82821525D01*
X167694329Y-82820135D01*
X167696000Y-82812452D01*
X167696000Y-82807885D01*
X168204000Y-82807885D01*
X168208475Y-82823124D01*
X168209865Y-82824329D01*
X168217548Y-82826000D01*
X169282367Y-82826000D01*
X169295898Y-82822027D01*
X169297203Y-82812947D01*
X169254133Y-82641477D01*
X169250813Y-82631726D01*
X169164999Y-82434365D01*
X169160133Y-82425290D01*
X169043239Y-82244601D01*
X169036947Y-82236430D01*
X168892113Y-82077260D01*
X168884580Y-82070234D01*
X168715691Y-81936855D01*
X168707108Y-81931153D01*
X168687599Y-81920383D01*
X168637628Y-81869950D01*
X168622856Y-81800507D01*
X168647972Y-81734102D01*
X168675323Y-81707496D01*
X168834133Y-81594217D01*
X168842003Y-81587567D01*
X168994445Y-81435656D01*
X169001122Y-81427811D01*
X169012124Y-81412500D01*
X174776584Y-81412500D01*
X174782980Y-81423770D01*
X175987188Y-82627978D01*
X176001132Y-82635592D01*
X176002965Y-82635461D01*
X176009580Y-82631210D01*
X177216604Y-81424186D01*
X177223795Y-81411017D01*
X177216473Y-81400780D01*
X177169233Y-81362115D01*
X177162261Y-81357160D01*
X176936122Y-81218582D01*
X176928552Y-81214624D01*
X176685704Y-81108022D01*
X176677644Y-81105120D01*
X176422592Y-81032467D01*
X176414214Y-81030685D01*
X176151656Y-80993318D01*
X176143111Y-80992691D01*
X175877908Y-80991302D01*
X175869374Y-80991839D01*
X175606433Y-81026456D01*
X175598035Y-81028149D01*
X175342238Y-81098127D01*
X175334143Y-81100946D01*
X175090199Y-81204997D01*
X175082577Y-81208881D01*
X174855013Y-81345075D01*
X174847981Y-81349962D01*
X174785053Y-81400377D01*
X174776584Y-81412500D01*
X169012124Y-81412500D01*
X169126702Y-81253047D01*
X169132013Y-81244208D01*
X169227358Y-81051292D01*
X169231156Y-81041699D01*
X169293716Y-80835791D01*
X169295893Y-80825721D01*
X169297705Y-80811960D01*
X169295493Y-80797778D01*
X169282336Y-80794000D01*
X168222115Y-80794000D01*
X168206876Y-80798475D01*
X168205671Y-80799865D01*
X168204000Y-80807548D01*
X168204000Y-82807885D01*
X167696000Y-82807885D01*
X167696000Y-80812115D01*
X167691525Y-80796876D01*
X167690135Y-80795671D01*
X167682452Y-80794000D01*
X165682115Y-80794000D01*
X165666876Y-80798475D01*
X165665671Y-80799865D01*
X165664000Y-80807548D01*
X165664000Y-82807885D01*
X165156000Y-82807885D01*
X165156000Y-80812115D01*
X165151525Y-80796876D01*
X165150135Y-80795671D01*
X165142452Y-80794000D01*
X164079283Y-80794000D01*
X164065752Y-80797973D01*
X164064315Y-80807966D01*
X164095542Y-80946528D01*
X164098621Y-80956356D01*
X164179589Y-81155756D01*
X164184232Y-81164947D01*
X164296682Y-81348448D01*
X164302765Y-81356759D01*
X164443665Y-81519417D01*
X164451032Y-81526633D01*
X164616606Y-81664095D01*
X164625053Y-81670010D01*
X164675031Y-81699215D01*
X164723755Y-81750854D01*
X164736826Y-81820636D01*
X164710095Y-81886408D01*
X164678605Y-81914622D01*
X164672469Y-81918486D01*
X164500373Y-82047700D01*
X164492666Y-82054543D01*
X164343984Y-82210129D01*
X164337498Y-82218139D01*
X164216232Y-82395908D01*
X164211134Y-82404882D01*
X164120530Y-82600071D01*
X164116967Y-82609758D01*
X164060536Y-82813239D01*
X158827161Y-82813239D01*
X158827203Y-82812947D01*
X158784133Y-82641477D01*
X158780813Y-82631726D01*
X158694999Y-82434365D01*
X158690133Y-82425290D01*
X158573239Y-82244601D01*
X158566947Y-82236430D01*
X158422113Y-82077260D01*
X158414580Y-82070234D01*
X158245691Y-81936855D01*
X158237108Y-81931153D01*
X158217599Y-81920383D01*
X158167628Y-81869950D01*
X158152856Y-81800507D01*
X158177972Y-81734102D01*
X158205323Y-81707496D01*
X158364133Y-81594217D01*
X158372003Y-81587567D01*
X158524445Y-81435656D01*
X158531122Y-81427811D01*
X158656702Y-81253047D01*
X158662013Y-81244208D01*
X158757358Y-81051292D01*
X158761156Y-81041699D01*
X158823716Y-80835791D01*
X158825893Y-80825721D01*
X158827705Y-80811960D01*
X158825493Y-80797778D01*
X158812336Y-80794000D01*
X157752115Y-80794000D01*
X157736876Y-80798475D01*
X157735671Y-80799865D01*
X157734000Y-80807548D01*
X157734000Y-82807885D01*
X157226000Y-82807885D01*
X157226000Y-80812115D01*
X157221525Y-80796876D01*
X157220135Y-80795671D01*
X157212452Y-80794000D01*
X155212115Y-80794000D01*
X155196876Y-80798475D01*
X155195671Y-80799865D01*
X155194000Y-80807548D01*
X155194000Y-82807885D01*
X154686000Y-82807885D01*
X154686000Y-80812115D01*
X154681525Y-80796876D01*
X154680135Y-80795671D01*
X154672452Y-80794000D01*
X153609283Y-80794000D01*
X153595752Y-80797973D01*
X153594315Y-80807966D01*
X153625542Y-80946528D01*
X153628621Y-80956356D01*
X153709589Y-81155756D01*
X153714232Y-81164947D01*
X153826682Y-81348448D01*
X153832765Y-81356759D01*
X153973665Y-81519417D01*
X153981032Y-81526633D01*
X154146606Y-81664095D01*
X154155053Y-81670010D01*
X154205031Y-81699215D01*
X154253755Y-81750854D01*
X154266826Y-81820636D01*
X154240095Y-81886408D01*
X154208605Y-81914622D01*
X154202469Y-81918486D01*
X154030373Y-82047700D01*
X154022666Y-82054543D01*
X153873984Y-82210129D01*
X153867498Y-82218139D01*
X153746232Y-82395908D01*
X153741134Y-82404882D01*
X153650530Y-82600071D01*
X153646967Y-82609758D01*
X153590536Y-82813239D01*
X148357161Y-82813239D01*
X148357203Y-82812947D01*
X148314133Y-82641477D01*
X148310813Y-82631726D01*
X148224999Y-82434365D01*
X148220133Y-82425290D01*
X148103239Y-82244601D01*
X148096947Y-82236430D01*
X147952113Y-82077260D01*
X147944580Y-82070234D01*
X147775691Y-81936855D01*
X147767108Y-81931153D01*
X147747599Y-81920383D01*
X147697628Y-81869950D01*
X147682856Y-81800507D01*
X147707972Y-81734102D01*
X147735323Y-81707496D01*
X147894133Y-81594217D01*
X147902003Y-81587567D01*
X148054445Y-81435656D01*
X148061122Y-81427811D01*
X148186702Y-81253047D01*
X148192013Y-81244208D01*
X148287358Y-81051292D01*
X148291156Y-81041699D01*
X148353716Y-80835791D01*
X148355893Y-80825721D01*
X148357705Y-80811960D01*
X148355493Y-80797778D01*
X148342336Y-80794000D01*
X147282115Y-80794000D01*
X147266876Y-80798475D01*
X147265671Y-80799865D01*
X147264000Y-80807548D01*
X147264000Y-82807885D01*
X146756000Y-82807885D01*
X146756000Y-80812115D01*
X146751525Y-80796876D01*
X146750135Y-80795671D01*
X146742452Y-80794000D01*
X144742115Y-80794000D01*
X144726876Y-80798475D01*
X144725671Y-80799865D01*
X144724000Y-80807548D01*
X144724000Y-82807885D01*
X144216000Y-82807885D01*
X144216000Y-80812115D01*
X144211525Y-80796876D01*
X144210135Y-80795671D01*
X144202452Y-80794000D01*
X143139283Y-80794000D01*
X143125752Y-80797973D01*
X143124315Y-80807966D01*
X143155542Y-80946528D01*
X143158621Y-80956356D01*
X143239589Y-81155756D01*
X143244232Y-81164947D01*
X143356682Y-81348448D01*
X143362765Y-81356759D01*
X143503665Y-81519417D01*
X143511032Y-81526633D01*
X143676606Y-81664095D01*
X143685053Y-81670010D01*
X143735031Y-81699215D01*
X143783755Y-81750854D01*
X143796826Y-81820636D01*
X143770095Y-81886408D01*
X143738605Y-81914622D01*
X143732469Y-81918486D01*
X143560373Y-82047700D01*
X143552666Y-82054543D01*
X143403984Y-82210129D01*
X143397498Y-82218139D01*
X143276232Y-82395908D01*
X143271134Y-82404882D01*
X143180530Y-82600071D01*
X143176967Y-82609758D01*
X143120536Y-82813239D01*
X137887161Y-82813239D01*
X137887203Y-82812947D01*
X137844133Y-82641477D01*
X137840813Y-82631726D01*
X137754999Y-82434365D01*
X137750133Y-82425290D01*
X137633239Y-82244601D01*
X137626947Y-82236430D01*
X137482113Y-82077260D01*
X137474580Y-82070234D01*
X137305691Y-81936855D01*
X137297108Y-81931153D01*
X137277599Y-81920383D01*
X137227628Y-81869950D01*
X137212856Y-81800507D01*
X137237972Y-81734102D01*
X137265323Y-81707496D01*
X137424133Y-81594217D01*
X137432003Y-81587567D01*
X137584445Y-81435656D01*
X137591122Y-81427811D01*
X137716702Y-81253047D01*
X137722013Y-81244208D01*
X137817358Y-81051292D01*
X137821156Y-81041699D01*
X137883716Y-80835791D01*
X137885893Y-80825721D01*
X137887705Y-80811960D01*
X137885493Y-80797778D01*
X137872336Y-80794000D01*
X136812115Y-80794000D01*
X136796876Y-80798475D01*
X136795671Y-80799865D01*
X136794000Y-80807548D01*
X136794000Y-82807885D01*
X136286000Y-82807885D01*
X136286000Y-80812115D01*
X136281525Y-80796876D01*
X136280135Y-80795671D01*
X136272452Y-80794000D01*
X134272115Y-80794000D01*
X134256876Y-80798475D01*
X134255671Y-80799865D01*
X134254000Y-80807548D01*
X134254000Y-82807885D01*
X133746000Y-82807885D01*
X133746000Y-80812115D01*
X133741525Y-80796876D01*
X133740135Y-80795671D01*
X133732452Y-80794000D01*
X132669283Y-80794000D01*
X132655752Y-80797973D01*
X132654315Y-80807966D01*
X132685542Y-80946528D01*
X132688621Y-80956356D01*
X132769589Y-81155756D01*
X132774232Y-81164947D01*
X132886682Y-81348448D01*
X132892765Y-81356759D01*
X133033665Y-81519417D01*
X133041032Y-81526633D01*
X133206606Y-81664095D01*
X133215053Y-81670010D01*
X133265031Y-81699215D01*
X133313755Y-81750854D01*
X133326826Y-81820636D01*
X133300095Y-81886408D01*
X133268605Y-81914622D01*
X133262469Y-81918486D01*
X133090373Y-82047700D01*
X133082666Y-82054543D01*
X132933984Y-82210129D01*
X132927498Y-82218139D01*
X132806232Y-82395908D01*
X132801134Y-82404882D01*
X132710530Y-82600071D01*
X132706967Y-82609758D01*
X132650536Y-82813239D01*
X127417161Y-82813239D01*
X127417203Y-82812947D01*
X127374133Y-82641477D01*
X127370813Y-82631726D01*
X127284999Y-82434365D01*
X127280133Y-82425290D01*
X127163239Y-82244601D01*
X127156947Y-82236430D01*
X127012113Y-82077260D01*
X127004580Y-82070234D01*
X126835691Y-81936855D01*
X126827108Y-81931153D01*
X126807599Y-81920383D01*
X126757628Y-81869950D01*
X126742856Y-81800507D01*
X126767972Y-81734102D01*
X126795323Y-81707496D01*
X126954133Y-81594217D01*
X126962003Y-81587567D01*
X127114445Y-81435656D01*
X127121122Y-81427811D01*
X127246702Y-81253047D01*
X127252013Y-81244208D01*
X127347358Y-81051292D01*
X127351156Y-81041699D01*
X127413716Y-80835791D01*
X127415893Y-80825721D01*
X127417705Y-80811960D01*
X127415493Y-80797778D01*
X127402336Y-80794000D01*
X126342115Y-80794000D01*
X126326876Y-80798475D01*
X126325671Y-80799865D01*
X126324000Y-80807548D01*
X126324000Y-82807885D01*
X125816000Y-82807885D01*
X125816000Y-80812115D01*
X125811525Y-80796876D01*
X125810135Y-80795671D01*
X125802452Y-80794000D01*
X123802115Y-80794000D01*
X123786876Y-80798475D01*
X123785671Y-80799865D01*
X123784000Y-80807548D01*
X123784000Y-82807885D01*
X123276000Y-82807885D01*
X123276000Y-80812115D01*
X123271525Y-80796876D01*
X123270135Y-80795671D01*
X123262452Y-80794000D01*
X122199283Y-80794000D01*
X122185752Y-80797973D01*
X122184315Y-80807966D01*
X122215542Y-80946528D01*
X122218621Y-80956356D01*
X122299589Y-81155756D01*
X122304232Y-81164947D01*
X122416682Y-81348448D01*
X122422765Y-81356759D01*
X122563665Y-81519417D01*
X122571032Y-81526633D01*
X122736606Y-81664095D01*
X122745053Y-81670010D01*
X122795031Y-81699215D01*
X122843755Y-81750854D01*
X122856826Y-81820636D01*
X122830095Y-81886408D01*
X122798605Y-81914622D01*
X122792469Y-81918486D01*
X122620373Y-82047700D01*
X122612666Y-82054543D01*
X122463984Y-82210129D01*
X122457498Y-82218139D01*
X122336232Y-82395908D01*
X122331134Y-82404882D01*
X122240530Y-82600071D01*
X122236967Y-82609758D01*
X122180536Y-82813239D01*
X116947161Y-82813239D01*
X116947203Y-82812947D01*
X116904133Y-82641477D01*
X116900813Y-82631726D01*
X116814999Y-82434365D01*
X116810133Y-82425290D01*
X116693239Y-82244601D01*
X116686947Y-82236430D01*
X116542113Y-82077260D01*
X116534580Y-82070234D01*
X116365691Y-81936855D01*
X116357108Y-81931153D01*
X116337599Y-81920383D01*
X116287628Y-81869950D01*
X116272856Y-81800507D01*
X116297972Y-81734102D01*
X116325323Y-81707496D01*
X116484133Y-81594217D01*
X116492003Y-81587567D01*
X116644445Y-81435656D01*
X116651122Y-81427811D01*
X116776702Y-81253047D01*
X116782013Y-81244208D01*
X116877358Y-81051292D01*
X116881156Y-81041699D01*
X116943716Y-80835791D01*
X116945893Y-80825721D01*
X116947705Y-80811960D01*
X116945493Y-80797778D01*
X116932336Y-80794000D01*
X115872115Y-80794000D01*
X115856876Y-80798475D01*
X115855671Y-80799865D01*
X115854000Y-80807548D01*
X115854000Y-82807885D01*
X115346000Y-82807885D01*
X115346000Y-80812115D01*
X115341525Y-80796876D01*
X115340135Y-80795671D01*
X115332452Y-80794000D01*
X113332115Y-80794000D01*
X113316876Y-80798475D01*
X113315671Y-80799865D01*
X113314000Y-80807548D01*
X113314000Y-82807885D01*
X112806000Y-82807885D01*
X112806000Y-80812115D01*
X112801525Y-80796876D01*
X112800135Y-80795671D01*
X112792452Y-80794000D01*
X111729283Y-80794000D01*
X111715752Y-80797973D01*
X111714315Y-80807966D01*
X111745542Y-80946528D01*
X111748621Y-80956356D01*
X111829589Y-81155756D01*
X111834232Y-81164947D01*
X111946682Y-81348448D01*
X111952765Y-81356759D01*
X112093665Y-81519417D01*
X112101032Y-81526633D01*
X112266606Y-81664095D01*
X112275053Y-81670010D01*
X112325031Y-81699215D01*
X112373755Y-81750854D01*
X112386826Y-81820636D01*
X112360095Y-81886408D01*
X112328605Y-81914622D01*
X112322469Y-81918486D01*
X112150373Y-82047700D01*
X112142666Y-82054543D01*
X111993984Y-82210129D01*
X111987498Y-82218139D01*
X111866232Y-82395908D01*
X111861134Y-82404882D01*
X111770530Y-82600071D01*
X111766967Y-82609758D01*
X111710536Y-82813239D01*
X106999960Y-82813239D01*
X106994362Y-82731123D01*
X106993201Y-82722649D01*
X106939419Y-82462944D01*
X106937120Y-82454709D01*
X106848588Y-82204705D01*
X106845191Y-82196854D01*
X106723550Y-81961178D01*
X106719122Y-81953866D01*
X106600031Y-81784417D01*
X106589509Y-81776037D01*
X106576121Y-81783089D01*
X105372022Y-82987188D01*
X105364408Y-83001132D01*
X104634356Y-83001132D01*
X104635592Y-82998868D01*
X104635461Y-82997035D01*
X104631210Y-82990420D01*
X103423814Y-81783024D01*
X103411804Y-81776466D01*
X103400064Y-81785434D01*
X103291935Y-81935911D01*
X103287418Y-81943196D01*
X103163325Y-82177567D01*
X103159839Y-82185395D01*
X103068700Y-82434446D01*
X103066311Y-82442670D01*
X103009812Y-82701795D01*
X103008563Y-82710250D01*
X102987754Y-82974653D01*
X102987665Y-82983204D01*
X100508000Y-82983204D01*
X100508000Y-81412500D01*
X103776584Y-81412500D01*
X103782980Y-81423770D01*
X104987188Y-82627978D01*
X105001132Y-82635592D01*
X105002965Y-82635461D01*
X105009580Y-82631210D01*
X106216604Y-81424186D01*
X106223795Y-81411017D01*
X106216473Y-81400780D01*
X106169233Y-81362115D01*
X106162261Y-81357160D01*
X105936122Y-81218582D01*
X105928552Y-81214624D01*
X105685704Y-81108022D01*
X105677644Y-81105120D01*
X105422592Y-81032467D01*
X105414214Y-81030685D01*
X105151656Y-80993318D01*
X105143111Y-80992691D01*
X104877908Y-80991302D01*
X104869374Y-80991839D01*
X104606433Y-81026456D01*
X104598035Y-81028149D01*
X104342238Y-81098127D01*
X104334143Y-81100946D01*
X104090199Y-81204997D01*
X104082577Y-81208881D01*
X103855013Y-81345075D01*
X103847981Y-81349962D01*
X103785053Y-81400377D01*
X103776584Y-81412500D01*
X100508000Y-81412500D01*
X100508000Y-79468134D01*
X102991500Y-79468134D01*
X102998255Y-79530316D01*
X103049385Y-79666705D01*
X103136739Y-79783261D01*
X103253295Y-79870615D01*
X103389684Y-79921745D01*
X103451866Y-79928500D01*
X106548134Y-79928500D01*
X106610316Y-79921745D01*
X106746705Y-79870615D01*
X106863261Y-79783261D01*
X106950615Y-79666705D01*
X107001745Y-79530316D01*
X107008500Y-79468134D01*
X107008500Y-78911734D01*
X111687900Y-78911734D01*
X111694655Y-78973916D01*
X111745785Y-79110305D01*
X111833139Y-79226861D01*
X111949695Y-79314215D01*
X111958104Y-79317367D01*
X111958105Y-79317368D01*
X112053954Y-79353300D01*
X112110719Y-79395941D01*
X112135419Y-79462503D01*
X112120212Y-79531852D01*
X112100819Y-79558333D01*
X111993984Y-79670129D01*
X111987498Y-79678139D01*
X111866232Y-79855908D01*
X111861134Y-79864882D01*
X111770530Y-80060071D01*
X111766967Y-80069758D01*
X111710536Y-80273239D01*
X111712233Y-80282609D01*
X111724610Y-80286000D01*
X116932367Y-80286000D01*
X116945898Y-80282027D01*
X116947203Y-80272947D01*
X116904133Y-80101477D01*
X116900813Y-80091726D01*
X116814999Y-79894365D01*
X116810133Y-79885290D01*
X116693239Y-79704601D01*
X116686947Y-79696430D01*
X116542113Y-79537260D01*
X116534580Y-79530234D01*
X116365691Y-79396855D01*
X116357104Y-79391150D01*
X116338082Y-79380649D01*
X116288111Y-79330216D01*
X116273340Y-79260773D01*
X116298457Y-79194368D01*
X116325801Y-79167768D01*
X116488667Y-79051596D01*
X116629018Y-78911734D01*
X122157900Y-78911734D01*
X122164655Y-78973916D01*
X122215785Y-79110305D01*
X122303139Y-79226861D01*
X122419695Y-79314215D01*
X122428104Y-79317367D01*
X122428105Y-79317368D01*
X122523954Y-79353300D01*
X122580719Y-79395941D01*
X122605419Y-79462503D01*
X122590212Y-79531852D01*
X122570819Y-79558333D01*
X122463984Y-79670129D01*
X122457498Y-79678139D01*
X122336232Y-79855908D01*
X122331134Y-79864882D01*
X122240530Y-80060071D01*
X122236967Y-80069758D01*
X122180536Y-80273239D01*
X122182233Y-80282609D01*
X122194610Y-80286000D01*
X127402367Y-80286000D01*
X127415898Y-80282027D01*
X127417203Y-80272947D01*
X127374133Y-80101477D01*
X127370813Y-80091726D01*
X127284999Y-79894365D01*
X127280133Y-79885290D01*
X127163239Y-79704601D01*
X127156947Y-79696430D01*
X127012113Y-79537260D01*
X127004580Y-79530234D01*
X126835691Y-79396855D01*
X126827104Y-79391150D01*
X126808082Y-79380649D01*
X126758111Y-79330216D01*
X126743340Y-79260773D01*
X126768457Y-79194368D01*
X126795801Y-79167768D01*
X126958667Y-79051596D01*
X127099018Y-78911734D01*
X132627900Y-78911734D01*
X132634655Y-78973916D01*
X132685785Y-79110305D01*
X132773139Y-79226861D01*
X132889695Y-79314215D01*
X132898104Y-79317367D01*
X132898105Y-79317368D01*
X132993954Y-79353300D01*
X133050719Y-79395941D01*
X133075419Y-79462503D01*
X133060212Y-79531852D01*
X133040819Y-79558333D01*
X132933984Y-79670129D01*
X132927498Y-79678139D01*
X132806232Y-79855908D01*
X132801134Y-79864882D01*
X132710530Y-80060071D01*
X132706967Y-80069758D01*
X132650536Y-80273239D01*
X132652233Y-80282609D01*
X132664610Y-80286000D01*
X137872367Y-80286000D01*
X137885898Y-80282027D01*
X137887203Y-80272947D01*
X137844133Y-80101477D01*
X137840813Y-80091726D01*
X137754999Y-79894365D01*
X137750133Y-79885290D01*
X137633239Y-79704601D01*
X137626947Y-79696430D01*
X137482113Y-79537260D01*
X137474580Y-79530234D01*
X137305691Y-79396855D01*
X137297104Y-79391150D01*
X137278082Y-79380649D01*
X137228111Y-79330216D01*
X137213340Y-79260773D01*
X137238457Y-79194368D01*
X137265801Y-79167768D01*
X137428667Y-79051596D01*
X137569018Y-78911734D01*
X143097900Y-78911734D01*
X143104655Y-78973916D01*
X143155785Y-79110305D01*
X143243139Y-79226861D01*
X143359695Y-79314215D01*
X143368104Y-79317367D01*
X143368105Y-79317368D01*
X143463954Y-79353300D01*
X143520719Y-79395941D01*
X143545419Y-79462503D01*
X143530212Y-79531852D01*
X143510819Y-79558333D01*
X143403984Y-79670129D01*
X143397498Y-79678139D01*
X143276232Y-79855908D01*
X143271134Y-79864882D01*
X143180530Y-80060071D01*
X143176967Y-80069758D01*
X143120536Y-80273239D01*
X143122233Y-80282609D01*
X143134610Y-80286000D01*
X148342367Y-80286000D01*
X148355898Y-80282027D01*
X148357203Y-80272947D01*
X148314133Y-80101477D01*
X148310813Y-80091726D01*
X148224999Y-79894365D01*
X148220133Y-79885290D01*
X148103239Y-79704601D01*
X148096947Y-79696430D01*
X147952113Y-79537260D01*
X147944580Y-79530234D01*
X147775691Y-79396855D01*
X147767104Y-79391150D01*
X147748082Y-79380649D01*
X147698111Y-79330216D01*
X147683340Y-79260773D01*
X147708457Y-79194368D01*
X147735801Y-79167768D01*
X147898667Y-79051596D01*
X148039018Y-78911734D01*
X153567900Y-78911734D01*
X153574655Y-78973916D01*
X153625785Y-79110305D01*
X153713139Y-79226861D01*
X153829695Y-79314215D01*
X153838104Y-79317367D01*
X153838105Y-79317368D01*
X153933954Y-79353300D01*
X153990719Y-79395941D01*
X154015419Y-79462503D01*
X154000212Y-79531852D01*
X153980819Y-79558333D01*
X153873984Y-79670129D01*
X153867498Y-79678139D01*
X153746232Y-79855908D01*
X153741134Y-79864882D01*
X153650530Y-80060071D01*
X153646967Y-80069758D01*
X153590536Y-80273239D01*
X153592233Y-80282609D01*
X153604610Y-80286000D01*
X158812367Y-80286000D01*
X158825898Y-80282027D01*
X158827203Y-80272947D01*
X158784133Y-80101477D01*
X158780813Y-80091726D01*
X158694999Y-79894365D01*
X158690133Y-79885290D01*
X158573239Y-79704601D01*
X158566947Y-79696430D01*
X158422113Y-79537260D01*
X158414580Y-79530234D01*
X158245691Y-79396855D01*
X158237104Y-79391150D01*
X158218082Y-79380649D01*
X158168111Y-79330216D01*
X158153340Y-79260773D01*
X158178457Y-79194368D01*
X158205801Y-79167768D01*
X158368667Y-79051596D01*
X158509018Y-78911734D01*
X164037900Y-78911734D01*
X164044655Y-78973916D01*
X164095785Y-79110305D01*
X164183139Y-79226861D01*
X164299695Y-79314215D01*
X164308104Y-79317367D01*
X164308105Y-79317368D01*
X164403954Y-79353300D01*
X164460719Y-79395941D01*
X164485419Y-79462503D01*
X164470212Y-79531852D01*
X164450819Y-79558333D01*
X164343984Y-79670129D01*
X164337498Y-79678139D01*
X164216232Y-79855908D01*
X164211134Y-79864882D01*
X164120530Y-80060071D01*
X164116967Y-80069758D01*
X164060536Y-80273239D01*
X164062233Y-80282609D01*
X164074610Y-80286000D01*
X169282367Y-80286000D01*
X169295898Y-80282027D01*
X169297203Y-80272947D01*
X169254133Y-80101477D01*
X169250813Y-80091726D01*
X169164999Y-79894365D01*
X169160133Y-79885290D01*
X169043239Y-79704601D01*
X169036947Y-79696430D01*
X168892113Y-79537260D01*
X168884580Y-79530234D01*
X168805947Y-79468134D01*
X173991500Y-79468134D01*
X173998255Y-79530316D01*
X174049385Y-79666705D01*
X174136739Y-79783261D01*
X174253295Y-79870615D01*
X174389684Y-79921745D01*
X174451866Y-79928500D01*
X177548134Y-79928500D01*
X177610316Y-79921745D01*
X177746705Y-79870615D01*
X177863261Y-79783261D01*
X177950615Y-79666705D01*
X178001745Y-79530316D01*
X178008500Y-79468134D01*
X178008500Y-76371866D01*
X178001745Y-76309684D01*
X177950615Y-76173295D01*
X177863261Y-76056739D01*
X177746705Y-75969385D01*
X177610316Y-75918255D01*
X177548134Y-75911500D01*
X174451866Y-75911500D01*
X174389684Y-75918255D01*
X174253295Y-75969385D01*
X174136739Y-76056739D01*
X174049385Y-76173295D01*
X173998255Y-76309684D01*
X173991500Y-76371866D01*
X173991500Y-79468134D01*
X168805947Y-79468134D01*
X168715691Y-79396855D01*
X168707104Y-79391150D01*
X168688082Y-79380649D01*
X168638111Y-79330216D01*
X168623340Y-79260773D01*
X168648457Y-79194368D01*
X168675801Y-79167768D01*
X168838667Y-79051596D01*
X168998487Y-78892333D01*
X169130150Y-78709105D01*
X169230118Y-78506835D01*
X169295708Y-78290952D01*
X169325158Y-78067256D01*
X169326802Y-78000000D01*
X169308315Y-77775132D01*
X169253349Y-77556304D01*
X169163380Y-77349391D01*
X169040826Y-77159951D01*
X168888977Y-76993071D01*
X168884926Y-76989872D01*
X168884922Y-76989868D01*
X168715966Y-76856434D01*
X168715962Y-76856432D01*
X168711911Y-76853232D01*
X168514383Y-76744191D01*
X168301698Y-76668876D01*
X168251297Y-76659898D01*
X168084657Y-76630214D01*
X168084653Y-76630214D01*
X168079569Y-76629308D01*
X168007574Y-76628429D01*
X167859129Y-76626615D01*
X167859127Y-76626615D01*
X167853959Y-76626552D01*
X167630929Y-76660680D01*
X167416468Y-76730777D01*
X167216335Y-76834960D01*
X167212202Y-76838063D01*
X167212199Y-76838065D01*
X167040040Y-76967325D01*
X167035905Y-76970430D01*
X167032333Y-76974168D01*
X166972411Y-77036872D01*
X166910887Y-77072301D01*
X166839975Y-77068844D01*
X166782188Y-77027598D01*
X166763336Y-76994050D01*
X166727367Y-76898103D01*
X166724215Y-76889695D01*
X166636861Y-76773139D01*
X166520305Y-76685785D01*
X166383916Y-76634655D01*
X166321734Y-76627900D01*
X164498266Y-76627900D01*
X164436084Y-76634655D01*
X164299695Y-76685785D01*
X164183139Y-76773139D01*
X164095785Y-76889695D01*
X164044655Y-77026084D01*
X164037900Y-77088266D01*
X164037900Y-78911734D01*
X158509018Y-78911734D01*
X158528487Y-78892333D01*
X158660150Y-78709105D01*
X158760118Y-78506835D01*
X158825708Y-78290952D01*
X158855158Y-78067256D01*
X158856802Y-78000000D01*
X158838315Y-77775132D01*
X158783349Y-77556304D01*
X158693380Y-77349391D01*
X158570826Y-77159951D01*
X158418977Y-76993071D01*
X158414926Y-76989872D01*
X158414922Y-76989868D01*
X158245966Y-76856434D01*
X158245962Y-76856432D01*
X158241911Y-76853232D01*
X158044383Y-76744191D01*
X157831698Y-76668876D01*
X157781297Y-76659898D01*
X157614657Y-76630214D01*
X157614653Y-76630214D01*
X157609569Y-76629308D01*
X157537574Y-76628429D01*
X157389129Y-76626615D01*
X157389127Y-76626615D01*
X157383959Y-76626552D01*
X157160929Y-76660680D01*
X156946468Y-76730777D01*
X156746335Y-76834960D01*
X156742202Y-76838063D01*
X156742199Y-76838065D01*
X156570040Y-76967325D01*
X156565905Y-76970430D01*
X156562333Y-76974168D01*
X156502411Y-77036872D01*
X156440887Y-77072301D01*
X156369975Y-77068844D01*
X156312188Y-77027598D01*
X156293336Y-76994050D01*
X156257367Y-76898103D01*
X156254215Y-76889695D01*
X156166861Y-76773139D01*
X156050305Y-76685785D01*
X155913916Y-76634655D01*
X155851734Y-76627900D01*
X154028266Y-76627900D01*
X153966084Y-76634655D01*
X153829695Y-76685785D01*
X153713139Y-76773139D01*
X153625785Y-76889695D01*
X153574655Y-77026084D01*
X153567900Y-77088266D01*
X153567900Y-78911734D01*
X148039018Y-78911734D01*
X148058487Y-78892333D01*
X148190150Y-78709105D01*
X148290118Y-78506835D01*
X148355708Y-78290952D01*
X148385158Y-78067256D01*
X148386802Y-78000000D01*
X148368315Y-77775132D01*
X148313349Y-77556304D01*
X148223380Y-77349391D01*
X148100826Y-77159951D01*
X147948977Y-76993071D01*
X147944926Y-76989872D01*
X147944922Y-76989868D01*
X147775966Y-76856434D01*
X147775962Y-76856432D01*
X147771911Y-76853232D01*
X147574383Y-76744191D01*
X147361698Y-76668876D01*
X147311297Y-76659898D01*
X147144657Y-76630214D01*
X147144653Y-76630214D01*
X147139569Y-76629308D01*
X147067574Y-76628429D01*
X146919129Y-76626615D01*
X146919127Y-76626615D01*
X146913959Y-76626552D01*
X146690929Y-76660680D01*
X146476468Y-76730777D01*
X146276335Y-76834960D01*
X146272202Y-76838063D01*
X146272199Y-76838065D01*
X146100040Y-76967325D01*
X146095905Y-76970430D01*
X146092333Y-76974168D01*
X146032411Y-77036872D01*
X145970887Y-77072301D01*
X145899975Y-77068844D01*
X145842188Y-77027598D01*
X145823336Y-76994050D01*
X145787367Y-76898103D01*
X145784215Y-76889695D01*
X145696861Y-76773139D01*
X145580305Y-76685785D01*
X145443916Y-76634655D01*
X145381734Y-76627900D01*
X143558266Y-76627900D01*
X143496084Y-76634655D01*
X143359695Y-76685785D01*
X143243139Y-76773139D01*
X143155785Y-76889695D01*
X143104655Y-77026084D01*
X143097900Y-77088266D01*
X143097900Y-78911734D01*
X137569018Y-78911734D01*
X137588487Y-78892333D01*
X137720150Y-78709105D01*
X137820118Y-78506835D01*
X137885708Y-78290952D01*
X137915158Y-78067256D01*
X137916802Y-78000000D01*
X137898315Y-77775132D01*
X137843349Y-77556304D01*
X137753380Y-77349391D01*
X137630826Y-77159951D01*
X137478977Y-76993071D01*
X137474926Y-76989872D01*
X137474922Y-76989868D01*
X137305966Y-76856434D01*
X137305962Y-76856432D01*
X137301911Y-76853232D01*
X137104383Y-76744191D01*
X136891698Y-76668876D01*
X136841297Y-76659898D01*
X136674657Y-76630214D01*
X136674653Y-76630214D01*
X136669569Y-76629308D01*
X136597574Y-76628429D01*
X136449129Y-76626615D01*
X136449127Y-76626615D01*
X136443959Y-76626552D01*
X136220929Y-76660680D01*
X136006468Y-76730777D01*
X135806335Y-76834960D01*
X135802202Y-76838063D01*
X135802199Y-76838065D01*
X135630040Y-76967325D01*
X135625905Y-76970430D01*
X135622333Y-76974168D01*
X135562411Y-77036872D01*
X135500887Y-77072301D01*
X135429975Y-77068844D01*
X135372188Y-77027598D01*
X135353336Y-76994050D01*
X135317367Y-76898103D01*
X135314215Y-76889695D01*
X135226861Y-76773139D01*
X135110305Y-76685785D01*
X134973916Y-76634655D01*
X134911734Y-76627900D01*
X133088266Y-76627900D01*
X133026084Y-76634655D01*
X132889695Y-76685785D01*
X132773139Y-76773139D01*
X132685785Y-76889695D01*
X132634655Y-77026084D01*
X132627900Y-77088266D01*
X132627900Y-78911734D01*
X127099018Y-78911734D01*
X127118487Y-78892333D01*
X127250150Y-78709105D01*
X127350118Y-78506835D01*
X127415708Y-78290952D01*
X127445158Y-78067256D01*
X127446802Y-78000000D01*
X127428315Y-77775132D01*
X127373349Y-77556304D01*
X127283380Y-77349391D01*
X127160826Y-77159951D01*
X127008977Y-76993071D01*
X127004926Y-76989872D01*
X127004922Y-76989868D01*
X126835966Y-76856434D01*
X126835962Y-76856432D01*
X126831911Y-76853232D01*
X126634383Y-76744191D01*
X126421698Y-76668876D01*
X126371297Y-76659898D01*
X126204657Y-76630214D01*
X126204653Y-76630214D01*
X126199569Y-76629308D01*
X126127574Y-76628429D01*
X125979129Y-76626615D01*
X125979127Y-76626615D01*
X125973959Y-76626552D01*
X125750929Y-76660680D01*
X125536468Y-76730777D01*
X125336335Y-76834960D01*
X125332202Y-76838063D01*
X125332199Y-76838065D01*
X125160040Y-76967325D01*
X125155905Y-76970430D01*
X125152333Y-76974168D01*
X125092411Y-77036872D01*
X125030887Y-77072301D01*
X124959975Y-77068844D01*
X124902188Y-77027598D01*
X124883336Y-76994050D01*
X124847367Y-76898103D01*
X124844215Y-76889695D01*
X124756861Y-76773139D01*
X124640305Y-76685785D01*
X124503916Y-76634655D01*
X124441734Y-76627900D01*
X122618266Y-76627900D01*
X122556084Y-76634655D01*
X122419695Y-76685785D01*
X122303139Y-76773139D01*
X122215785Y-76889695D01*
X122164655Y-77026084D01*
X122157900Y-77088266D01*
X122157900Y-78911734D01*
X116629018Y-78911734D01*
X116648487Y-78892333D01*
X116780150Y-78709105D01*
X116880118Y-78506835D01*
X116945708Y-78290952D01*
X116975158Y-78067256D01*
X116976802Y-78000000D01*
X116958315Y-77775132D01*
X116903349Y-77556304D01*
X116813380Y-77349391D01*
X116690826Y-77159951D01*
X116538977Y-76993071D01*
X116534926Y-76989872D01*
X116534922Y-76989868D01*
X116365966Y-76856434D01*
X116365962Y-76856432D01*
X116361911Y-76853232D01*
X116164383Y-76744191D01*
X115951698Y-76668876D01*
X115901297Y-76659898D01*
X115734657Y-76630214D01*
X115734653Y-76630214D01*
X115729569Y-76629308D01*
X115657574Y-76628429D01*
X115509129Y-76626615D01*
X115509127Y-76626615D01*
X115503959Y-76626552D01*
X115280929Y-76660680D01*
X115066468Y-76730777D01*
X114866335Y-76834960D01*
X114862202Y-76838063D01*
X114862199Y-76838065D01*
X114690040Y-76967325D01*
X114685905Y-76970430D01*
X114682333Y-76974168D01*
X114622411Y-77036872D01*
X114560887Y-77072301D01*
X114489975Y-77068844D01*
X114432188Y-77027598D01*
X114413336Y-76994050D01*
X114377367Y-76898103D01*
X114374215Y-76889695D01*
X114286861Y-76773139D01*
X114170305Y-76685785D01*
X114033916Y-76634655D01*
X113971734Y-76627900D01*
X112148266Y-76627900D01*
X112086084Y-76634655D01*
X111949695Y-76685785D01*
X111833139Y-76773139D01*
X111745785Y-76889695D01*
X111694655Y-77026084D01*
X111687900Y-77088266D01*
X111687900Y-78911734D01*
X107008500Y-78911734D01*
X107008500Y-76371866D01*
X107001745Y-76309684D01*
X106950615Y-76173295D01*
X106863261Y-76056739D01*
X106746705Y-75969385D01*
X106610316Y-75918255D01*
X106548134Y-75911500D01*
X103451866Y-75911500D01*
X103389684Y-75918255D01*
X103253295Y-75969385D01*
X103136739Y-76056739D01*
X103049385Y-76173295D01*
X102998255Y-76309684D01*
X102991500Y-76371866D01*
X102991500Y-79468134D01*
X100508000Y-79468134D01*
X100508000Y-71132703D01*
X101890743Y-71132703D01*
X101928268Y-71417734D01*
X102004129Y-71695036D01*
X102116923Y-71959476D01*
X102264561Y-72206161D01*
X102444313Y-72430528D01*
X102652851Y-72628423D01*
X102886317Y-72796186D01*
X102890112Y-72798195D01*
X102890113Y-72798196D01*
X102911869Y-72809715D01*
X103140392Y-72930712D01*
X103410373Y-73029511D01*
X103691264Y-73090755D01*
X103719841Y-73093004D01*
X103914282Y-73108307D01*
X103914291Y-73108307D01*
X103916739Y-73108500D01*
X104072271Y-73108500D01*
X104074407Y-73108354D01*
X104074418Y-73108354D01*
X104282548Y-73094165D01*
X104282554Y-73094164D01*
X104286825Y-73093873D01*
X104291020Y-73093004D01*
X104291022Y-73093004D01*
X104427583Y-73064724D01*
X104568342Y-73035574D01*
X104839343Y-72939607D01*
X105094812Y-72807750D01*
X105098313Y-72805289D01*
X105098317Y-72805287D01*
X105212417Y-72725096D01*
X105330023Y-72642441D01*
X105540622Y-72446740D01*
X105722713Y-72224268D01*
X105872927Y-71979142D01*
X105988483Y-71715898D01*
X106067244Y-71439406D01*
X106107751Y-71154784D01*
X106107845Y-71136951D01*
X106107867Y-71132703D01*
X173890743Y-71132703D01*
X173928268Y-71417734D01*
X174004129Y-71695036D01*
X174116923Y-71959476D01*
X174264561Y-72206161D01*
X174444313Y-72430528D01*
X174652851Y-72628423D01*
X174886317Y-72796186D01*
X174890112Y-72798195D01*
X174890113Y-72798196D01*
X174911869Y-72809715D01*
X175140392Y-72930712D01*
X175410373Y-73029511D01*
X175691264Y-73090755D01*
X175719841Y-73093004D01*
X175914282Y-73108307D01*
X175914291Y-73108307D01*
X175916739Y-73108500D01*
X176072271Y-73108500D01*
X176074407Y-73108354D01*
X176074418Y-73108354D01*
X176282548Y-73094165D01*
X176282554Y-73094164D01*
X176286825Y-73093873D01*
X176291020Y-73093004D01*
X176291022Y-73093004D01*
X176427583Y-73064724D01*
X176568342Y-73035574D01*
X176839343Y-72939607D01*
X177094812Y-72807750D01*
X177098313Y-72805289D01*
X177098317Y-72805287D01*
X177212417Y-72725096D01*
X177330023Y-72642441D01*
X177540622Y-72446740D01*
X177722713Y-72224268D01*
X177872927Y-71979142D01*
X177988483Y-71715898D01*
X178067244Y-71439406D01*
X178107751Y-71154784D01*
X178107845Y-71136951D01*
X178109235Y-70871583D01*
X178109235Y-70871576D01*
X178109257Y-70867297D01*
X178071732Y-70582266D01*
X177995871Y-70304964D01*
X177883077Y-70040524D01*
X177735439Y-69793839D01*
X177555687Y-69569472D01*
X177347149Y-69371577D01*
X177113683Y-69203814D01*
X177091843Y-69192250D01*
X177068654Y-69179972D01*
X176859608Y-69069288D01*
X176589627Y-68970489D01*
X176308736Y-68909245D01*
X176277685Y-68906801D01*
X176085718Y-68891693D01*
X176085709Y-68891693D01*
X176083261Y-68891500D01*
X175927729Y-68891500D01*
X175925593Y-68891646D01*
X175925582Y-68891646D01*
X175717452Y-68905835D01*
X175717446Y-68905836D01*
X175713175Y-68906127D01*
X175708980Y-68906996D01*
X175708978Y-68906996D01*
X175572417Y-68935276D01*
X175431658Y-68964426D01*
X175160657Y-69060393D01*
X174905188Y-69192250D01*
X174901687Y-69194711D01*
X174901683Y-69194713D01*
X174891594Y-69201804D01*
X174669977Y-69357559D01*
X174459378Y-69553260D01*
X174277287Y-69775732D01*
X174127073Y-70020858D01*
X174011517Y-70284102D01*
X173932756Y-70560594D01*
X173892249Y-70845216D01*
X173892227Y-70849505D01*
X173892226Y-70849512D01*
X173890765Y-71128417D01*
X173890743Y-71132703D01*
X106107867Y-71132703D01*
X106109235Y-70871583D01*
X106109235Y-70871576D01*
X106109257Y-70867297D01*
X106071732Y-70582266D01*
X105995871Y-70304964D01*
X105883077Y-70040524D01*
X105735439Y-69793839D01*
X105555687Y-69569472D01*
X105347149Y-69371577D01*
X105113683Y-69203814D01*
X105091843Y-69192250D01*
X105068654Y-69179972D01*
X104859608Y-69069288D01*
X104589627Y-68970489D01*
X104308736Y-68909245D01*
X104277685Y-68906801D01*
X104085718Y-68891693D01*
X104085709Y-68891693D01*
X104083261Y-68891500D01*
X103927729Y-68891500D01*
X103925593Y-68891646D01*
X103925582Y-68891646D01*
X103717452Y-68905835D01*
X103717446Y-68905836D01*
X103713175Y-68906127D01*
X103708980Y-68906996D01*
X103708978Y-68906996D01*
X103572417Y-68935276D01*
X103431658Y-68964426D01*
X103160657Y-69060393D01*
X102905188Y-69192250D01*
X102901687Y-69194711D01*
X102901683Y-69194713D01*
X102891594Y-69201804D01*
X102669977Y-69357559D01*
X102459378Y-69553260D01*
X102277287Y-69775732D01*
X102127073Y-70020858D01*
X102011517Y-70284102D01*
X101932756Y-70560594D01*
X101892249Y-70845216D01*
X101892227Y-70849505D01*
X101892226Y-70849512D01*
X101890765Y-71128417D01*
X101890743Y-71132703D01*
X100508000Y-71132703D01*
X100508000Y-67634000D01*
X100528002Y-67565879D01*
X100581658Y-67519386D01*
X100634000Y-67508000D01*
X179366000Y-67508000D01*
X179434121Y-67528002D01*
G37*
%TD.AperFunction*%
%TD*%
M02*
